<?xml version="1.0" encoding="utf-8" standalone="no"?>
<!DOCTYPE svg PUBLIC "-//W3C//DTD SVG 1.1//EN"
  "http://www.w3.org/Graphics/SVG/1.1/DTD/svg11.dtd">
<svg xmlns:xlink="http://www.w3.org/1999/xlink" width="651.552813pt" height="450.382937pt" viewBox="0 0 651.552813 450.382937" xmlns="http://www.w3.org/2000/svg" version="1.1">
 <metadata>
  <rdf:RDF xmlns:dc="http://purl.org/dc/elements/1.1/" xmlns:cc="http://creativecommons.org/ns#" xmlns:rdf="http://www.w3.org/1999/02/22-rdf-syntax-ns#">
   <cc:Work>
    <dc:type rdf:resource="http://purl.org/dc/dcmitype/StillImage"/>
    <dc:date>2026-03-22T21:21:35.820427</dc:date>
    <dc:format>image/svg+xml</dc:format>
    <dc:creator>
     <cc:Agent>
      <dc:title>Matplotlib v3.10.8, https://matplotlib.org/</dc:title>
     </cc:Agent>
    </dc:creator>
   </cc:Work>
  </rdf:RDF>
 </metadata>
 <defs>
  <style type="text/css">*{stroke-linejoin: round; stroke-linecap: butt}</style>
 </defs>
 <g id="figure_1">
  <g id="patch_1">
   <path d="M 0 450.382937 
L 651.552813 450.382937 
L 651.552813 -0 
L 0 -0 
z
" style="fill: #ebe1c3"/>
  </g>
  <g id="axes_1">
   <g id="patch_2">
    <path d="M 64.447656 395.265437 
L 622.447656 395.265437 
L 622.447656 62.625437 
L 64.447656 62.625437 
z
" style="fill: #ebe1c3"/>
   </g>
   <g id="matplotlib.axis_1">
    <g id="xtick_1">
     <g id="line2d_1">
      <defs>
       <path id="mea3b4c7172" d="M 0 0 
L 0 3.5 
" style="stroke: #6b6860; stroke-width: 0.8"/>
      </defs>
      <g>
       <use xlink:href="#mea3b4c7172" x="101.647656" y="395.265437" style="fill: #6b6860; stroke: #6b6860; stroke-width: 0.8"/>
      </g>
     </g>
     <g id="text_1">
      <!-- 100 -->
      <g style="fill: #2b2b2b" transform="translate(94.1425 408.692) scale(0.09 -0.09)">
       <defs>
        <path id="HelveticaNeue-31" d="M 2278 0 
L 2278 4538 
L 1862 4538 
Q 1818 4282 1696 4115 
Q 1574 3949 1398 3853 
Q 1222 3757 1004 3721 
Q 787 3686 557 3686 
L 557 3251 
L 1734 3251 
L 1734 0 
L 2278 0 
z
" transform="scale(0.015625)"/>
        <path id="HelveticaNeue-30" d="M 845 2234 
Q 845 2400 848 2601 
Q 851 2803 880 3004 
Q 909 3206 963 3398 
Q 1018 3590 1123 3734 
Q 1229 3878 1389 3968 
Q 1549 4058 1779 4058 
Q 2010 4058 2170 3968 
Q 2330 3878 2435 3734 
Q 2541 3590 2595 3398 
Q 2650 3206 2678 3004 
Q 2707 2803 2710 2601 
Q 2714 2400 2714 2234 
Q 2714 1978 2698 1661 
Q 2682 1344 2595 1065 
Q 2509 787 2317 595 
Q 2125 403 1779 403 
Q 1434 403 1242 595 
Q 1050 787 963 1065 
Q 877 1344 861 1661 
Q 845 1978 845 2234 
z
M 269 2227 
Q 269 1978 281 1709 
Q 294 1440 345 1184 
Q 397 928 493 701 
Q 589 474 755 301 
Q 922 128 1174 29 
Q 1427 -70 1779 -70 
Q 2138 -70 2387 29 
Q 2637 128 2803 301 
Q 2970 474 3066 701 
Q 3162 928 3213 1184 
Q 3264 1440 3277 1709 
Q 3290 1978 3290 2227 
Q 3290 2477 3277 2745 
Q 3264 3014 3213 3270 
Q 3162 3526 3066 3756 
Q 2970 3987 2803 4160 
Q 2637 4333 2384 4435 
Q 2131 4538 1779 4538 
Q 1427 4538 1174 4435 
Q 922 4333 755 4160 
Q 589 3987 493 3756 
Q 397 3526 345 3270 
Q 294 3014 281 2745 
Q 269 2477 269 2227 
z
" transform="scale(0.015625)"/>
       </defs>
       <use xlink:href="#HelveticaNeue-31"/>
       <use xlink:href="#HelveticaNeue-30" transform="translate(55.599991 0)"/>
       <use xlink:href="#HelveticaNeue-30" transform="translate(111.199982 0)"/>
      </g>
     </g>
    </g>
    <g id="xtick_2">
     <g id="line2d_2">
      <g>
       <use xlink:href="#mea3b4c7172" x="176.047656" y="395.265437" style="fill: #6b6860; stroke: #6b6860; stroke-width: 0.8"/>
      </g>
     </g>
     <g id="text_2">
      <!-- 200 -->
      <g style="fill: #2b2b2b" transform="translate(168.5425 408.692) scale(0.09 -0.09)">
       <defs>
        <path id="HelveticaNeue-32" d="M 282 2931 
L 826 2931 
Q 819 3136 867 3337 
Q 915 3539 1024 3699 
Q 1133 3859 1302 3958 
Q 1472 4058 1709 4058 
Q 1888 4058 2048 4000 
Q 2208 3942 2326 3833 
Q 2445 3725 2515 3574 
Q 2586 3424 2586 3238 
Q 2586 3002 2512 2822 
Q 2438 2643 2294 2489 
Q 2150 2336 1932 2185 
Q 1715 2035 1427 1856 
Q 1190 1715 972 1555 
Q 755 1395 582 1184 
Q 410 973 298 688 
Q 186 403 154 0 
L 3117 0 
L 3117 480 
L 787 480 
Q 826 691 950 854 
Q 1075 1018 1251 1158 
Q 1427 1299 1638 1424 
Q 1850 1549 2061 1677 
Q 2272 1811 2470 1958 
Q 2669 2106 2822 2288 
Q 2976 2470 3069 2700 
Q 3162 2931 3162 3232 
Q 3162 3552 3050 3795 
Q 2938 4038 2746 4201 
Q 2554 4365 2294 4451 
Q 2035 4538 1741 4538 
Q 1382 4538 1100 4416 
Q 819 4294 630 4080 
Q 442 3866 352 3571 
Q 262 3277 282 2931 
z
" transform="scale(0.015625)"/>
       </defs>
       <use xlink:href="#HelveticaNeue-32"/>
       <use xlink:href="#HelveticaNeue-30" transform="translate(55.599991 0)"/>
       <use xlink:href="#HelveticaNeue-30" transform="translate(111.199982 0)"/>
      </g>
     </g>
    </g>
    <g id="xtick_3">
     <g id="line2d_3">
      <g>
       <use xlink:href="#mea3b4c7172" x="250.447656" y="395.265437" style="fill: #6b6860; stroke: #6b6860; stroke-width: 0.8"/>
      </g>
     </g>
     <g id="text_3">
      <!-- 300 -->
      <g style="fill: #2b2b2b" transform="translate(242.9425 408.692) scale(0.09 -0.09)">
       <defs>
        <path id="HelveticaNeue-33" d="M 1395 2592 
L 1395 2131 
Q 1549 2150 1722 2150 
Q 1926 2150 2102 2096 
Q 2278 2042 2406 1930 
Q 2534 1818 2611 1654 
Q 2688 1491 2688 1280 
Q 2688 1075 2608 912 
Q 2528 749 2393 637 
Q 2259 525 2080 464 
Q 1901 403 1702 403 
Q 1235 403 992 681 
Q 749 960 736 1402 
L 192 1402 
Q 186 1050 291 774 
Q 397 499 595 310 
Q 794 122 1075 26 
Q 1357 -70 1702 -70 
Q 2022 -70 2307 16 
Q 2592 102 2803 275 
Q 3014 448 3139 707 
Q 3264 966 3264 1306 
Q 3264 1715 3062 2016 
Q 2861 2317 2445 2406 
L 2445 2419 
Q 2714 2541 2893 2777 
Q 3072 3014 3072 3322 
Q 3072 3635 2966 3865 
Q 2861 4096 2675 4243 
Q 2490 4390 2237 4464 
Q 1984 4538 1690 4538 
Q 1350 4538 1091 4429 
Q 832 4320 659 4128 
Q 486 3936 393 3667 
Q 301 3398 288 3072 
L 832 3072 
Q 832 3270 883 3449 
Q 934 3629 1040 3763 
Q 1146 3898 1309 3978 
Q 1472 4058 1690 4058 
Q 2035 4058 2265 3875 
Q 2496 3693 2496 3328 
Q 2496 3149 2425 3008 
Q 2355 2867 2236 2774 
Q 2118 2682 1961 2634 
Q 1805 2586 1632 2586 
L 1517 2586 
Q 1485 2586 1453 2586 
Q 1427 2586 1395 2592 
z
" transform="scale(0.015625)"/>
       </defs>
       <use xlink:href="#HelveticaNeue-33"/>
       <use xlink:href="#HelveticaNeue-30" transform="translate(55.599991 0)"/>
       <use xlink:href="#HelveticaNeue-30" transform="translate(111.199982 0)"/>
      </g>
     </g>
    </g>
    <g id="xtick_4">
     <g id="line2d_4">
      <g>
       <use xlink:href="#mea3b4c7172" x="324.847656" y="395.265437" style="fill: #6b6860; stroke: #6b6860; stroke-width: 0.8"/>
      </g>
     </g>
     <g id="text_4">
      <!-- 400 -->
      <g style="fill: #2b2b2b" transform="translate(317.3425 408.692) scale(0.09 -0.09)">
       <defs>
        <path id="HelveticaNeue-34" d="M 2170 1542 
L 646 1542 
L 2157 3763 
L 2170 3763 
L 2170 1542 
z
M 2682 1542 
L 2682 4538 
L 2246 4538 
L 179 1587 
L 179 1062 
L 2170 1062 
L 2170 0 
L 2682 0 
L 2682 1062 
L 3296 1062 
L 3296 1542 
L 2682 1542 
z
" transform="scale(0.015625)"/>
       </defs>
       <use xlink:href="#HelveticaNeue-34"/>
       <use xlink:href="#HelveticaNeue-30" transform="translate(55.599991 0)"/>
       <use xlink:href="#HelveticaNeue-30" transform="translate(111.199982 0)"/>
      </g>
     </g>
    </g>
    <g id="xtick_5">
     <g id="line2d_5">
      <g>
       <use xlink:href="#mea3b4c7172" x="399.247656" y="395.265437" style="fill: #6b6860; stroke: #6b6860; stroke-width: 0.8"/>
      </g>
     </g>
     <g id="text_5">
      <!-- 500 -->
      <g style="fill: #2b2b2b" transform="translate(391.7425 408.692) scale(0.09 -0.09)">
       <defs>
        <path id="HelveticaNeue-35" d="M 3008 3981 
L 3008 4461 
L 768 4461 
L 346 2106 
L 813 2080 
Q 973 2272 1181 2390 
Q 1389 2509 1658 2509 
Q 1888 2509 2077 2432 
Q 2266 2355 2400 2217 
Q 2534 2080 2608 1891 
Q 2682 1702 2682 1478 
Q 2682 1210 2605 1008 
Q 2528 806 2397 672 
Q 2266 538 2090 470 
Q 1914 403 1722 403 
Q 1517 403 1347 464 
Q 1178 525 1053 637 
Q 928 749 854 899 
Q 781 1050 768 1222 
L 224 1222 
Q 230 915 345 672 
Q 461 429 659 265 
Q 858 102 1117 16 
Q 1376 -70 1670 -70 
Q 2067 -70 2364 54 
Q 2662 179 2860 390 
Q 3059 602 3158 874 
Q 3258 1146 3258 1434 
Q 3258 1824 3142 2115 
Q 3027 2406 2828 2601 
Q 2630 2797 2361 2893 
Q 2093 2989 1792 2989 
Q 1562 2989 1328 2909 
Q 1094 2829 947 2662 
L 934 2675 
L 1178 3981 
L 3008 3981 
z
" transform="scale(0.015625)"/>
       </defs>
       <use xlink:href="#HelveticaNeue-35"/>
       <use xlink:href="#HelveticaNeue-30" transform="translate(55.599991 0)"/>
       <use xlink:href="#HelveticaNeue-30" transform="translate(111.199982 0)"/>
      </g>
     </g>
    </g>
    <g id="xtick_6">
     <g id="line2d_6">
      <g>
       <use xlink:href="#mea3b4c7172" x="473.647656" y="395.265437" style="fill: #6b6860; stroke: #6b6860; stroke-width: 0.8"/>
      </g>
     </g>
     <g id="text_6">
      <!-- 600 -->
      <g style="fill: #2b2b2b" transform="translate(466.1425 408.692) scale(0.09 -0.09)">
       <defs>
        <path id="HelveticaNeue-36" d="M 2650 3379 
L 3194 3379 
Q 3142 3942 2809 4240 
Q 2477 4538 1914 4538 
Q 1427 4538 1107 4333 
Q 787 4128 595 3789 
Q 403 3450 323 3011 
Q 243 2573 243 2106 
Q 243 1747 297 1363 
Q 352 979 518 659 
Q 685 339 992 134 
Q 1299 -70 1805 -70 
Q 2234 -70 2525 74 
Q 2816 218 2992 438 
Q 3168 659 3245 928 
Q 3322 1197 3322 1446 
Q 3322 1760 3226 2029 
Q 3130 2298 2954 2496 
Q 2778 2694 2518 2806 
Q 2259 2918 1933 2918 
Q 1562 2918 1277 2777 
Q 992 2637 800 2323 
L 787 2336 
Q 794 2598 838 2899 
Q 883 3200 1001 3459 
Q 1120 3718 1331 3888 
Q 1542 4058 1888 4058 
Q 2214 4058 2412 3872 
Q 2611 3686 2650 3379 
z
M 1830 2438 
Q 2061 2438 2233 2355 
Q 2406 2272 2521 2134 
Q 2637 1997 2691 1808 
Q 2746 1619 2746 1408 
Q 2746 1210 2685 1027 
Q 2624 845 2509 704 
Q 2394 563 2224 483 
Q 2054 403 1830 403 
Q 1606 403 1430 483 
Q 1254 563 1136 697 
Q 1018 832 954 1017 
Q 890 1203 890 1414 
Q 890 1626 950 1814 
Q 1011 2003 1132 2140 
Q 1254 2278 1427 2358 
Q 1600 2438 1830 2438 
z
" transform="scale(0.015625)"/>
       </defs>
       <use xlink:href="#HelveticaNeue-36"/>
       <use xlink:href="#HelveticaNeue-30" transform="translate(55.599991 0)"/>
       <use xlink:href="#HelveticaNeue-30" transform="translate(111.199982 0)"/>
      </g>
     </g>
    </g>
    <g id="xtick_7">
     <g id="line2d_7">
      <g>
       <use xlink:href="#mea3b4c7172" x="548.047656" y="395.265437" style="fill: #6b6860; stroke: #6b6860; stroke-width: 0.8"/>
      </g>
     </g>
     <g id="text_7">
      <!-- 700 -->
      <g style="fill: #2b2b2b" transform="translate(540.5425 408.692) scale(0.09 -0.09)">
       <defs>
        <path id="HelveticaNeue-37" d="M 3258 3994 
L 3258 4461 
L 320 4461 
L 320 3949 
L 2701 3949 
Q 2342 3571 2032 3123 
Q 1722 2675 1485 2172 
Q 1248 1670 1097 1123 
Q 947 576 909 0 
L 1517 0 
Q 1549 531 1696 1094 
Q 1843 1658 2076 2189 
Q 2310 2720 2611 3187 
Q 2912 3654 3258 3994 
z
" transform="scale(0.015625)"/>
       </defs>
       <use xlink:href="#HelveticaNeue-37"/>
       <use xlink:href="#HelveticaNeue-30" transform="translate(55.599991 0)"/>
       <use xlink:href="#HelveticaNeue-30" transform="translate(111.199982 0)"/>
      </g>
     </g>
    </g>
    <g id="xtick_8">
     <g id="line2d_8">
      <g>
       <use xlink:href="#mea3b4c7172" x="622.447656" y="395.265437" style="fill: #6b6860; stroke: #6b6860; stroke-width: 0.8"/>
      </g>
     </g>
     <g id="text_8">
      <!-- 800 -->
      <g style="fill: #2b2b2b" transform="translate(614.9425 408.692) scale(0.09 -0.09)">
       <defs>
        <path id="HelveticaNeue-38" d="M 992 3360 
Q 992 3533 1056 3661 
Q 1120 3789 1225 3878 
Q 1331 3968 1478 4013 
Q 1626 4058 1786 4058 
Q 2118 4058 2332 3882 
Q 2547 3706 2547 3360 
Q 2547 3014 2336 2822 
Q 2125 2630 1798 2630 
Q 1632 2630 1485 2675 
Q 1338 2720 1229 2809 
Q 1120 2899 1056 3036 
Q 992 3174 992 3360 
z
M 416 3379 
Q 416 3072 589 2813 
Q 762 2554 1050 2438 
Q 666 2304 461 2006 
Q 256 1709 256 1306 
Q 256 960 374 701 
Q 493 442 701 269 
Q 909 96 1190 13 
Q 1472 -70 1798 -70 
Q 2112 -70 2387 19 
Q 2662 109 2864 285 
Q 3066 461 3184 717 
Q 3302 973 3302 1306 
Q 3302 1728 3104 2019 
Q 2906 2310 2496 2438 
Q 2784 2566 2953 2819 
Q 3123 3072 3123 3379 
Q 3123 3597 3046 3805 
Q 2970 4013 2806 4176 
Q 2643 4339 2380 4438 
Q 2118 4538 1747 4538 
Q 1485 4538 1245 4461 
Q 1005 4384 819 4237 
Q 634 4090 525 3875 
Q 416 3661 416 3379 
z
M 832 1280 
Q 832 1478 905 1638 
Q 979 1798 1110 1913 
Q 1242 2029 1418 2089 
Q 1594 2150 1792 2150 
Q 1984 2150 2153 2083 
Q 2323 2016 2451 1901 
Q 2579 1786 2652 1629 
Q 2726 1472 2726 1286 
Q 2726 1094 2659 934 
Q 2592 774 2467 656 
Q 2342 538 2172 470 
Q 2003 403 1798 403 
Q 1376 403 1104 636 
Q 832 870 832 1280 
z
" transform="scale(0.015625)"/>
       </defs>
       <use xlink:href="#HelveticaNeue-38"/>
       <use xlink:href="#HelveticaNeue-30" transform="translate(55.599991 0)"/>
       <use xlink:href="#HelveticaNeue-30" transform="translate(111.199982 0)"/>
      </g>
     </g>
    </g>
    <g id="text_9">
     <!-- Total Memory (GB) -->
     <g style="fill: #2b2b2b" transform="translate(297.813984 426.505594) scale(0.11 -0.11)">
      <defs>
       <path id="HelveticaNeue-54" d="M 1536 4058 
L 1536 0 
L 2144 0 
L 2144 4058 
L 3667 4058 
L 3667 4570 
L 13 4570 
L 13 4058 
L 1536 4058 
z
" transform="scale(0.015625)"/>
       <path id="HelveticaNeue-6f" d="M 806 1651 
Q 806 1952 886 2185 
Q 966 2419 1107 2579 
Q 1248 2739 1437 2822 
Q 1626 2906 1837 2906 
Q 2048 2906 2237 2822 
Q 2426 2739 2566 2579 
Q 2707 2419 2787 2185 
Q 2867 1952 2867 1651 
Q 2867 1350 2787 1116 
Q 2707 883 2566 726 
Q 2426 570 2237 486 
Q 2048 403 1837 403 
Q 1626 403 1437 486 
Q 1248 570 1107 726 
Q 966 883 886 1116 
Q 806 1350 806 1651 
z
M 230 1651 
Q 230 1286 332 972 
Q 435 659 640 425 
Q 845 192 1145 61 
Q 1446 -70 1837 -70 
Q 2234 -70 2531 61 
Q 2829 192 3033 425 
Q 3238 659 3340 972 
Q 3443 1286 3443 1651 
Q 3443 2016 3340 2333 
Q 3238 2650 3033 2883 
Q 2829 3117 2531 3251 
Q 2234 3386 1837 3386 
Q 1446 3386 1145 3251 
Q 845 3117 640 2883 
Q 435 2650 332 2333 
Q 230 2016 230 1651 
z
" transform="scale(0.015625)"/>
       <path id="HelveticaNeue-74" d="M 1165 3309 
L 1165 4301 
L 621 4301 
L 621 3309 
L 58 3309 
L 58 2829 
L 621 2829 
L 621 723 
Q 621 493 665 352 
Q 710 211 803 134 
Q 896 58 1046 29 
Q 1197 0 1408 0 
L 1824 0 
L 1824 480 
L 1574 480 
Q 1446 480 1366 489 
Q 1286 499 1241 531 
Q 1197 563 1181 620 
Q 1165 678 1165 774 
L 1165 2829 
L 1824 2829 
L 1824 3309 
L 1165 3309 
z
" transform="scale(0.015625)"/>
       <path id="HelveticaNeue-61" d="M 3341 13 
Q 3200 -70 2950 -70 
Q 2739 -70 2614 48 
Q 2490 166 2490 435 
Q 2266 166 1968 48 
Q 1670 -70 1325 -70 
Q 1101 -70 899 -19 
Q 698 32 550 141 
Q 403 250 316 426 
Q 230 602 230 851 
Q 230 1133 326 1312 
Q 422 1491 579 1603 
Q 736 1715 937 1772 
Q 1139 1830 1350 1869 
Q 1574 1914 1776 1936 
Q 1978 1958 2131 2000 
Q 2285 2042 2374 2122 
Q 2464 2202 2464 2355 
Q 2464 2534 2397 2643 
Q 2330 2752 2224 2809 
Q 2118 2867 1987 2886 
Q 1856 2906 1728 2906 
Q 1382 2906 1152 2774 
Q 922 2643 902 2278 
L 358 2278 
Q 371 2586 486 2797 
Q 602 3008 794 3139 
Q 986 3270 1232 3328 
Q 1478 3386 1760 3386 
Q 1984 3386 2205 3354 
Q 2426 3322 2605 3222 
Q 2784 3123 2893 2944 
Q 3002 2765 3002 2477 
L 3002 774 
Q 3002 582 3024 492 
Q 3046 403 3174 403 
Q 3245 403 3341 435 
L 3341 13 
z
M 2458 1709 
Q 2355 1632 2188 1597 
Q 2022 1562 1840 1539 
Q 1658 1517 1472 1488 
Q 1286 1459 1139 1395 
Q 992 1331 899 1212 
Q 806 1094 806 890 
Q 806 755 860 662 
Q 915 570 1001 512 
Q 1088 454 1203 428 
Q 1318 403 1446 403 
Q 1715 403 1907 476 
Q 2099 550 2220 662 
Q 2342 774 2400 905 
Q 2458 1037 2458 1152 
L 2458 1709 
z
" transform="scale(0.015625)"/>
       <path id="HelveticaNeue-6c" d="M 442 4570 
L 442 0 
L 986 0 
L 986 4570 
L 442 4570 
z
" transform="scale(0.015625)"/>
       <path id="HelveticaNeue-20" transform="scale(0.015625)"/>
       <path id="HelveticaNeue-4d" d="M 512 4570 
L 512 0 
L 1088 0 
L 1088 3802 
L 1101 3802 
L 2528 0 
L 3046 0 
L 4474 3802 
L 4486 3802 
L 4486 0 
L 5062 0 
L 5062 4570 
L 4230 4570 
L 2784 730 
L 1344 4570 
L 512 4570 
z
" transform="scale(0.015625)"/>
       <path id="HelveticaNeue-65" d="M 2707 1971 
L 806 1971 
Q 819 2163 889 2332 
Q 960 2502 1081 2630 
Q 1203 2758 1372 2832 
Q 1542 2906 1754 2906 
Q 1958 2906 2128 2832 
Q 2298 2758 2422 2633 
Q 2547 2509 2620 2336 
Q 2694 2163 2707 1971 
z
M 3232 1050 
L 2694 1050 
Q 2624 723 2403 563 
Q 2182 403 1837 403 
Q 1568 403 1369 492 
Q 1171 582 1043 732 
Q 915 883 857 1078 
Q 800 1274 806 1491 
L 3283 1491 
Q 3296 1792 3229 2125 
Q 3162 2458 2986 2739 
Q 2810 3021 2518 3203 
Q 2227 3386 1786 3386 
Q 1446 3386 1161 3258 
Q 877 3130 669 2899 
Q 461 2669 345 2355 
Q 230 2042 230 1664 
Q 243 1286 342 966 
Q 442 646 640 416 
Q 838 186 1129 58 
Q 1421 -70 1818 -70 
Q 2381 -70 2752 211 
Q 3123 493 3232 1050 
z
" transform="scale(0.015625)"/>
       <path id="HelveticaNeue-6d" d="M 410 3309 
L 410 0 
L 954 0 
L 954 2061 
Q 954 2157 1002 2301 
Q 1050 2445 1155 2579 
Q 1261 2714 1430 2810 
Q 1600 2906 1837 2906 
Q 2022 2906 2140 2851 
Q 2259 2797 2329 2697 
Q 2400 2598 2429 2464 
Q 2458 2330 2458 2170 
L 2458 0 
L 3002 0 
L 3002 2061 
Q 3002 2445 3232 2675 
Q 3462 2906 3866 2906 
Q 4064 2906 4189 2848 
Q 4314 2790 4384 2691 
Q 4454 2592 4480 2457 
Q 4506 2323 4506 2170 
L 4506 0 
L 5050 0 
L 5050 2426 
Q 5050 2682 4970 2864 
Q 4890 3046 4746 3161 
Q 4602 3277 4400 3331 
Q 4198 3386 3949 3386 
Q 3622 3386 3350 3238 
Q 3078 3091 2912 2822 
Q 2810 3130 2560 3258 
Q 2310 3386 2003 3386 
Q 1306 3386 934 2822 
L 922 2822 
L 922 3309 
L 410 3309 
z
" transform="scale(0.015625)"/>
       <path id="HelveticaNeue-72" d="M 390 3309 
L 390 0 
L 934 0 
L 934 1472 
Q 934 1792 998 2038 
Q 1062 2285 1203 2457 
Q 1344 2630 1574 2720 
Q 1805 2810 2131 2810 
L 2131 3386 
Q 1690 3398 1402 3206 
Q 1114 3014 915 2611 
L 902 2611 
L 902 3309 
L 390 3309 
z
" transform="scale(0.015625)"/>
       <path id="HelveticaNeue-79" d="M 1709 -442 
Q 1613 -685 1520 -851 
Q 1427 -1018 1315 -1123 
Q 1203 -1229 1065 -1277 
Q 928 -1325 749 -1325 
Q 653 -1325 557 -1312 
Q 461 -1299 371 -1267 
L 371 -768 
Q 442 -800 534 -822 
Q 627 -845 691 -845 
Q 858 -845 970 -765 
Q 1082 -685 1139 -538 
L 1363 19 
L 51 3309 
L 666 3309 
L 1632 602 
L 1645 602 
L 2573 3309 
L 3149 3309 
L 1709 -442 
z
" transform="scale(0.015625)"/>
       <path id="HelveticaNeue-28" d="M 1306 -1261 
L 1722 -1261 
Q 1267 -525 1072 198 
Q 877 922 877 1728 
Q 877 2515 1069 3232 
Q 1261 3949 1722 4678 
L 1306 4678 
Q 806 4019 553 3251 
Q 301 2483 301 1728 
Q 301 1306 371 922 
Q 442 538 573 173 
Q 704 -192 889 -547 
Q 1075 -902 1306 -1261 
z
" transform="scale(0.015625)"/>
       <path id="HelveticaNeue-47" d="M 3917 570 
L 4077 0 
L 4461 0 
L 4461 2406 
L 2458 2406 
L 2458 1894 
L 3917 1894 
Q 3930 1581 3834 1309 
Q 3738 1037 3549 835 
Q 3360 634 3085 518 
Q 2810 403 2451 403 
Q 2067 403 1776 553 
Q 1485 704 1286 957 
Q 1088 1210 985 1539 
Q 883 1869 883 2227 
Q 883 2592 972 2941 
Q 1062 3290 1251 3562 
Q 1440 3834 1737 4000 
Q 2035 4166 2451 4166 
Q 2707 4166 2934 4105 
Q 3162 4045 3341 3923 
Q 3520 3802 3641 3613 
Q 3763 3424 3808 3162 
L 4416 3162 
Q 4352 3565 4176 3849 
Q 4000 4134 3741 4320 
Q 3482 4506 3152 4592 
Q 2822 4678 2451 4678 
Q 1907 4678 1500 4476 
Q 1094 4275 822 3936 
Q 550 3597 412 3145 
Q 275 2694 275 2195 
Q 275 1747 422 1331 
Q 570 915 851 595 
Q 1133 275 1536 86 
Q 1939 -102 2451 -102 
Q 2854 -102 3251 54 
Q 3648 211 3917 570 
z
" transform="scale(0.015625)"/>
       <path id="HelveticaNeue-42" d="M 1107 2605 
L 1107 4058 
L 2323 4058 
Q 2522 4058 2698 4035 
Q 2874 4013 3008 3936 
Q 3142 3859 3219 3718 
Q 3296 3578 3296 3334 
Q 3296 2970 3069 2787 
Q 2842 2605 2323 2605 
L 1107 2605 
z
M 499 4570 
L 499 0 
L 2707 0 
Q 3046 0 3305 112 
Q 3565 224 3741 406 
Q 3917 589 4006 825 
Q 4096 1062 4096 1312 
Q 4096 1734 3872 2028 
Q 3648 2323 3226 2413 
L 3226 2426 
Q 3552 2554 3728 2819 
Q 3904 3085 3904 3450 
Q 3904 3795 3747 4032 
Q 3590 4269 3366 4403 
Q 3264 4467 3120 4499 
Q 2976 4531 2809 4547 
Q 2643 4563 2473 4566 
Q 2304 4570 2157 4570 
L 499 4570 
z
M 1107 512 
L 1107 2093 
L 2496 2093 
Q 2688 2093 2867 2057 
Q 3046 2022 3184 1936 
Q 3322 1850 3405 1702 
Q 3488 1555 3488 1331 
Q 3488 947 3261 729 
Q 3034 512 2630 512 
L 1107 512 
z
" transform="scale(0.015625)"/>
       <path id="HelveticaNeue-29" d="M -58 -1261 
L 352 -1261 
Q 851 -602 1104 163 
Q 1357 928 1357 1683 
Q 1357 2106 1286 2490 
Q 1216 2874 1085 3242 
Q 954 3610 768 3965 
Q 582 4320 352 4678 
L -58 4678 
Q 390 3942 585 3216 
Q 781 2490 781 1683 
Q 781 902 589 182 
Q 397 -538 -58 -1261 
z
" transform="scale(0.015625)"/>
      </defs>
      <use xlink:href="#HelveticaNeue-54"/>
      <use xlink:href="#HelveticaNeue-6f" transform="translate(46.274994 0)"/>
      <use xlink:href="#HelveticaNeue-74" transform="translate(103.674988 0)"/>
      <use xlink:href="#HelveticaNeue-61" transform="translate(135.174973 0)"/>
      <use xlink:href="#HelveticaNeue-6c" transform="translate(188.874969 0)"/>
      <use xlink:href="#HelveticaNeue-20" transform="translate(211.074966 0)"/>
      <use xlink:href="#HelveticaNeue-4d" transform="translate(238.874954 0)"/>
      <use xlink:href="#HelveticaNeue-65" transform="translate(325.974945 0)"/>
      <use xlink:href="#HelveticaNeue-6d" transform="translate(379.674942 0)"/>
      <use xlink:href="#HelveticaNeue-6f" transform="translate(464.97493 0)"/>
      <use xlink:href="#HelveticaNeue-72" transform="translate(522.374924 0)"/>
      <use xlink:href="#HelveticaNeue-79" transform="translate(555.674911 0)"/>
      <use xlink:href="#HelveticaNeue-20" transform="translate(605.674896 0)"/>
      <use xlink:href="#HelveticaNeue-28" transform="translate(633.474884 0)"/>
      <use xlink:href="#HelveticaNeue-47" transform="translate(659.374878 0)"/>
      <use xlink:href="#HelveticaNeue-42" transform="translate(735.274872 0)"/>
      <use xlink:href="#HelveticaNeue-29" transform="translate(803.774857 0)"/>
     </g>
    </g>
   </g>
   <g id="matplotlib.axis_2">
    <g id="ytick_1">
     <g id="line2d_9">
      <path d="M 64.447656 395.265437 
L 622.447656 395.265437 
" clip-path="url(#p292263295b)" style="fill: none; stroke: #c4b892; stroke-opacity: 0.5; stroke-width: 0.5; stroke-linecap: square"/>
     </g>
     <g id="line2d_10">
      <defs>
       <path id="m5a194ed436" d="M 0 0 
L -3.5 0 
" style="stroke: #6b6860; stroke-width: 0.8"/>
      </defs>
      <g>
       <use xlink:href="#m5a194ed436" x="64.447656" y="395.265437" style="fill: #6b6860; stroke: #6b6860; stroke-width: 0.8"/>
      </g>
     </g>
     <g id="text_10">
      <!-- $\mathdefault{10^{-4}}$ -->
      <g style="fill: #2b2b2b" transform="translate(39.807656 398.478719) scale(0.09 -0.09)">
       <defs>
        <path id="HelveticaNeue-2212" d="M 307 1837 
L 307 1402 
L 3533 1402 
L 3533 1837 
L 307 1837 
z
" transform="scale(0.015625)"/>
       </defs>
       <use xlink:href="#HelveticaNeue-31" transform="translate(0 0.173438)"/>
       <use xlink:href="#HelveticaNeue-30" transform="translate(55.599991 0.173438)"/>
       <use xlink:href="#HelveticaNeue-2212" transform="translate(112.104786 36.365625) scale(0.7)"/>
       <use xlink:href="#HelveticaNeue-34" transform="translate(154.104776 36.365625) scale(0.7)"/>
      </g>
     </g>
    </g>
    <g id="ytick_2">
     <g id="line2d_11">
      <path d="M 64.447656 339.825438 
L 622.447656 339.825438 
" clip-path="url(#p292263295b)" style="fill: none; stroke: #c4b892; stroke-opacity: 0.5; stroke-width: 0.5; stroke-linecap: square"/>
     </g>
     <g id="line2d_12">
      <g>
       <use xlink:href="#m5a194ed436" x="64.447656" y="339.825438" style="fill: #6b6860; stroke: #6b6860; stroke-width: 0.8"/>
      </g>
     </g>
     <g id="text_11">
      <!-- $\mathdefault{10^{-3}}$ -->
      <g style="fill: #2b2b2b" transform="translate(39.807656 343.038719) scale(0.09 -0.09)">
       <use xlink:href="#HelveticaNeue-31" transform="translate(0 0.173438)"/>
       <use xlink:href="#HelveticaNeue-30" transform="translate(55.599991 0.173438)"/>
       <use xlink:href="#HelveticaNeue-2212" transform="translate(112.104786 36.365625) scale(0.7)"/>
       <use xlink:href="#HelveticaNeue-33" transform="translate(154.104776 36.365625) scale(0.7)"/>
      </g>
     </g>
    </g>
    <g id="ytick_3">
     <g id="line2d_13">
      <path d="M 64.447656 284.385437 
L 622.447656 284.385437 
" clip-path="url(#p292263295b)" style="fill: none; stroke: #c4b892; stroke-opacity: 0.5; stroke-width: 0.5; stroke-linecap: square"/>
     </g>
     <g id="line2d_14">
      <g>
       <use xlink:href="#m5a194ed436" x="64.447656" y="284.385437" style="fill: #6b6860; stroke: #6b6860; stroke-width: 0.8"/>
      </g>
     </g>
     <g id="text_12">
      <!-- $\mathdefault{10^{-2}}$ -->
      <g style="fill: #2b2b2b" transform="translate(39.807656 287.598719) scale(0.09 -0.09)">
       <use xlink:href="#HelveticaNeue-31" transform="translate(0 0.173438)"/>
       <use xlink:href="#HelveticaNeue-30" transform="translate(55.599991 0.173438)"/>
       <use xlink:href="#HelveticaNeue-2212" transform="translate(112.104786 36.365625) scale(0.7)"/>
       <use xlink:href="#HelveticaNeue-32" transform="translate(154.104776 36.365625) scale(0.7)"/>
      </g>
     </g>
    </g>
    <g id="ytick_4">
     <g id="line2d_15">
      <path d="M 64.447656 228.945437 
L 622.447656 228.945437 
" clip-path="url(#p292263295b)" style="fill: none; stroke: #c4b892; stroke-opacity: 0.5; stroke-width: 0.5; stroke-linecap: square"/>
     </g>
     <g id="line2d_16">
      <g>
       <use xlink:href="#m5a194ed436" x="64.447656" y="228.945437" style="fill: #6b6860; stroke: #6b6860; stroke-width: 0.8"/>
      </g>
     </g>
     <g id="text_13">
      <!-- $\mathdefault{10^{-1}}$ -->
      <g style="fill: #2b2b2b" transform="translate(39.807656 232.158719) scale(0.09 -0.09)">
       <use xlink:href="#HelveticaNeue-31" transform="translate(0 0.173438)"/>
       <use xlink:href="#HelveticaNeue-30" transform="translate(55.599991 0.173438)"/>
       <use xlink:href="#HelveticaNeue-2212" transform="translate(112.104786 36.365625) scale(0.7)"/>
       <use xlink:href="#HelveticaNeue-31" transform="translate(154.104776 36.365625) scale(0.7)"/>
      </g>
     </g>
    </g>
    <g id="ytick_5">
     <g id="line2d_17">
      <path d="M 64.447656 173.505437 
L 622.447656 173.505437 
" clip-path="url(#p292263295b)" style="fill: none; stroke: #c4b892; stroke-opacity: 0.5; stroke-width: 0.5; stroke-linecap: square"/>
     </g>
     <g id="line2d_18">
      <g>
       <use xlink:href="#m5a194ed436" x="64.447656" y="173.505437" style="fill: #6b6860; stroke: #6b6860; stroke-width: 0.8"/>
      </g>
     </g>
     <g id="text_14">
      <!-- $\mathdefault{10^{0}}$ -->
      <g style="fill: #2b2b2b" transform="translate(43.587656 176.718719) scale(0.09 -0.09)">
       <use xlink:href="#HelveticaNeue-31" transform="translate(0 0.173438)"/>
       <use xlink:href="#HelveticaNeue-30" transform="translate(55.599991 0.173438)"/>
       <use xlink:href="#HelveticaNeue-30" transform="translate(112.104786 36.365625) scale(0.7)"/>
      </g>
     </g>
    </g>
    <g id="ytick_6">
     <g id="line2d_19">
      <path d="M 64.447656 118.065437 
L 622.447656 118.065437 
" clip-path="url(#p292263295b)" style="fill: none; stroke: #c4b892; stroke-opacity: 0.5; stroke-width: 0.5; stroke-linecap: square"/>
     </g>
     <g id="line2d_20">
      <g>
       <use xlink:href="#m5a194ed436" x="64.447656" y="118.065437" style="fill: #6b6860; stroke: #6b6860; stroke-width: 0.8"/>
      </g>
     </g>
     <g id="text_15">
      <!-- $\mathdefault{10^{1}}$ -->
      <g style="fill: #2b2b2b" transform="translate(43.587656 121.278719) scale(0.09 -0.09)">
       <use xlink:href="#HelveticaNeue-31" transform="translate(0 0.173438)"/>
       <use xlink:href="#HelveticaNeue-30" transform="translate(55.599991 0.173438)"/>
       <use xlink:href="#HelveticaNeue-31" transform="translate(112.104786 36.365625) scale(0.7)"/>
      </g>
     </g>
    </g>
    <g id="ytick_7">
     <g id="line2d_21">
      <path d="M 64.447656 62.625437 
L 622.447656 62.625437 
" clip-path="url(#p292263295b)" style="fill: none; stroke: #c4b892; stroke-opacity: 0.5; stroke-width: 0.5; stroke-linecap: square"/>
     </g>
     <g id="line2d_22">
      <g>
       <use xlink:href="#m5a194ed436" x="64.447656" y="62.625437" style="fill: #6b6860; stroke: #6b6860; stroke-width: 0.8"/>
      </g>
     </g>
     <g id="text_16">
      <!-- $\mathdefault{10^{2}}$ -->
      <g style="fill: #2b2b2b" transform="translate(43.587656 65.838719) scale(0.09 -0.09)">
       <use xlink:href="#HelveticaNeue-31" transform="translate(0 0.173438)"/>
       <use xlink:href="#HelveticaNeue-30" transform="translate(55.599991 0.173438)"/>
       <use xlink:href="#HelveticaNeue-32" transform="translate(112.104786 36.365625) scale(0.7)"/>
      </g>
     </g>
    </g>
    <g id="ytick_8">
     <g id="line2d_23">
      <defs>
       <path id="mced411ae9e" d="M 0 0 
L -2 0 
" style="stroke: #6b6860; stroke-width: 0.6"/>
      </defs>
      <g>
       <use xlink:href="#mced411ae9e" x="64.447656" y="378.576335" style="fill: #6b6860; stroke: #6b6860; stroke-width: 0.6"/>
      </g>
     </g>
    </g>
    <g id="ytick_9">
     <g id="line2d_24">
      <g>
       <use xlink:href="#mced411ae9e" x="64.447656" y="368.813835" style="fill: #6b6860; stroke: #6b6860; stroke-width: 0.6"/>
      </g>
     </g>
    </g>
    <g id="ytick_10">
     <g id="line2d_25">
      <g>
       <use xlink:href="#mced411ae9e" x="64.447656" y="361.887232" style="fill: #6b6860; stroke: #6b6860; stroke-width: 0.6"/>
      </g>
     </g>
    </g>
    <g id="ytick_11">
     <g id="line2d_26">
      <g>
       <use xlink:href="#mced411ae9e" x="64.447656" y="356.51454" style="fill: #6b6860; stroke: #6b6860; stroke-width: 0.6"/>
      </g>
     </g>
    </g>
    <g id="ytick_12">
     <g id="line2d_27">
      <g>
       <use xlink:href="#mced411ae9e" x="64.447656" y="352.124732" style="fill: #6b6860; stroke: #6b6860; stroke-width: 0.6"/>
      </g>
     </g>
    </g>
    <g id="ytick_13">
     <g id="line2d_28">
      <g>
       <use xlink:href="#mced411ae9e" x="64.447656" y="348.413202" style="fill: #6b6860; stroke: #6b6860; stroke-width: 0.6"/>
      </g>
     </g>
    </g>
    <g id="ytick_14">
     <g id="line2d_29">
      <g>
       <use xlink:href="#mced411ae9e" x="64.447656" y="345.198129" style="fill: #6b6860; stroke: #6b6860; stroke-width: 0.6"/>
      </g>
     </g>
    </g>
    <g id="ytick_15">
     <g id="line2d_30">
      <g>
       <use xlink:href="#mced411ae9e" x="64.447656" y="342.362233" style="fill: #6b6860; stroke: #6b6860; stroke-width: 0.6"/>
      </g>
     </g>
    </g>
    <g id="ytick_16">
     <g id="line2d_31">
      <g>
       <use xlink:href="#mced411ae9e" x="64.447656" y="323.136335" style="fill: #6b6860; stroke: #6b6860; stroke-width: 0.6"/>
      </g>
     </g>
    </g>
    <g id="ytick_17">
     <g id="line2d_32">
      <g>
       <use xlink:href="#mced411ae9e" x="64.447656" y="313.373835" style="fill: #6b6860; stroke: #6b6860; stroke-width: 0.6"/>
      </g>
     </g>
    </g>
    <g id="ytick_18">
     <g id="line2d_33">
      <g>
       <use xlink:href="#mced411ae9e" x="64.447656" y="306.447232" style="fill: #6b6860; stroke: #6b6860; stroke-width: 0.6"/>
      </g>
     </g>
    </g>
    <g id="ytick_19">
     <g id="line2d_34">
      <g>
       <use xlink:href="#mced411ae9e" x="64.447656" y="301.07454" style="fill: #6b6860; stroke: #6b6860; stroke-width: 0.6"/>
      </g>
     </g>
    </g>
    <g id="ytick_20">
     <g id="line2d_35">
      <g>
       <use xlink:href="#mced411ae9e" x="64.447656" y="296.684732" style="fill: #6b6860; stroke: #6b6860; stroke-width: 0.6"/>
      </g>
     </g>
    </g>
    <g id="ytick_21">
     <g id="line2d_36">
      <g>
       <use xlink:href="#mced411ae9e" x="64.447656" y="292.973202" style="fill: #6b6860; stroke: #6b6860; stroke-width: 0.6"/>
      </g>
     </g>
    </g>
    <g id="ytick_22">
     <g id="line2d_37">
      <g>
       <use xlink:href="#mced411ae9e" x="64.447656" y="289.758129" style="fill: #6b6860; stroke: #6b6860; stroke-width: 0.6"/>
      </g>
     </g>
    </g>
    <g id="ytick_23">
     <g id="line2d_38">
      <g>
       <use xlink:href="#mced411ae9e" x="64.447656" y="286.922233" style="fill: #6b6860; stroke: #6b6860; stroke-width: 0.6"/>
      </g>
     </g>
    </g>
    <g id="ytick_24">
     <g id="line2d_39">
      <g>
       <use xlink:href="#mced411ae9e" x="64.447656" y="267.696335" style="fill: #6b6860; stroke: #6b6860; stroke-width: 0.6"/>
      </g>
     </g>
    </g>
    <g id="ytick_25">
     <g id="line2d_40">
      <g>
       <use xlink:href="#mced411ae9e" x="64.447656" y="257.933835" style="fill: #6b6860; stroke: #6b6860; stroke-width: 0.6"/>
      </g>
     </g>
    </g>
    <g id="ytick_26">
     <g id="line2d_41">
      <g>
       <use xlink:href="#mced411ae9e" x="64.447656" y="251.007232" style="fill: #6b6860; stroke: #6b6860; stroke-width: 0.6"/>
      </g>
     </g>
    </g>
    <g id="ytick_27">
     <g id="line2d_42">
      <g>
       <use xlink:href="#mced411ae9e" x="64.447656" y="245.63454" style="fill: #6b6860; stroke: #6b6860; stroke-width: 0.6"/>
      </g>
     </g>
    </g>
    <g id="ytick_28">
     <g id="line2d_43">
      <g>
       <use xlink:href="#mced411ae9e" x="64.447656" y="241.244732" style="fill: #6b6860; stroke: #6b6860; stroke-width: 0.6"/>
      </g>
     </g>
    </g>
    <g id="ytick_29">
     <g id="line2d_44">
      <g>
       <use xlink:href="#mced411ae9e" x="64.447656" y="237.533202" style="fill: #6b6860; stroke: #6b6860; stroke-width: 0.6"/>
      </g>
     </g>
    </g>
    <g id="ytick_30">
     <g id="line2d_45">
      <g>
       <use xlink:href="#mced411ae9e" x="64.447656" y="234.318129" style="fill: #6b6860; stroke: #6b6860; stroke-width: 0.6"/>
      </g>
     </g>
    </g>
    <g id="ytick_31">
     <g id="line2d_46">
      <g>
       <use xlink:href="#mced411ae9e" x="64.447656" y="231.482233" style="fill: #6b6860; stroke: #6b6860; stroke-width: 0.6"/>
      </g>
     </g>
    </g>
    <g id="ytick_32">
     <g id="line2d_47">
      <g>
       <use xlink:href="#mced411ae9e" x="64.447656" y="212.256335" style="fill: #6b6860; stroke: #6b6860; stroke-width: 0.6"/>
      </g>
     </g>
    </g>
    <g id="ytick_33">
     <g id="line2d_48">
      <g>
       <use xlink:href="#mced411ae9e" x="64.447656" y="202.493835" style="fill: #6b6860; stroke: #6b6860; stroke-width: 0.6"/>
      </g>
     </g>
    </g>
    <g id="ytick_34">
     <g id="line2d_49">
      <g>
       <use xlink:href="#mced411ae9e" x="64.447656" y="195.567232" style="fill: #6b6860; stroke: #6b6860; stroke-width: 0.6"/>
      </g>
     </g>
    </g>
    <g id="ytick_35">
     <g id="line2d_50">
      <g>
       <use xlink:href="#mced411ae9e" x="64.447656" y="190.19454" style="fill: #6b6860; stroke: #6b6860; stroke-width: 0.6"/>
      </g>
     </g>
    </g>
    <g id="ytick_36">
     <g id="line2d_51">
      <g>
       <use xlink:href="#mced411ae9e" x="64.447656" y="185.804732" style="fill: #6b6860; stroke: #6b6860; stroke-width: 0.6"/>
      </g>
     </g>
    </g>
    <g id="ytick_37">
     <g id="line2d_52">
      <g>
       <use xlink:href="#mced411ae9e" x="64.447656" y="182.093202" style="fill: #6b6860; stroke: #6b6860; stroke-width: 0.6"/>
      </g>
     </g>
    </g>
    <g id="ytick_38">
     <g id="line2d_53">
      <g>
       <use xlink:href="#mced411ae9e" x="64.447656" y="178.878129" style="fill: #6b6860; stroke: #6b6860; stroke-width: 0.6"/>
      </g>
     </g>
    </g>
    <g id="ytick_39">
     <g id="line2d_54">
      <g>
       <use xlink:href="#mced411ae9e" x="64.447656" y="176.042233" style="fill: #6b6860; stroke: #6b6860; stroke-width: 0.6"/>
      </g>
     </g>
    </g>
    <g id="ytick_40">
     <g id="line2d_55">
      <g>
       <use xlink:href="#mced411ae9e" x="64.447656" y="156.816335" style="fill: #6b6860; stroke: #6b6860; stroke-width: 0.6"/>
      </g>
     </g>
    </g>
    <g id="ytick_41">
     <g id="line2d_56">
      <g>
       <use xlink:href="#mced411ae9e" x="64.447656" y="147.053835" style="fill: #6b6860; stroke: #6b6860; stroke-width: 0.6"/>
      </g>
     </g>
    </g>
    <g id="ytick_42">
     <g id="line2d_57">
      <g>
       <use xlink:href="#mced411ae9e" x="64.447656" y="140.127232" style="fill: #6b6860; stroke: #6b6860; stroke-width: 0.6"/>
      </g>
     </g>
    </g>
    <g id="ytick_43">
     <g id="line2d_58">
      <g>
       <use xlink:href="#mced411ae9e" x="64.447656" y="134.75454" style="fill: #6b6860; stroke: #6b6860; stroke-width: 0.6"/>
      </g>
     </g>
    </g>
    <g id="ytick_44">
     <g id="line2d_59">
      <g>
       <use xlink:href="#mced411ae9e" x="64.447656" y="130.364732" style="fill: #6b6860; stroke: #6b6860; stroke-width: 0.6"/>
      </g>
     </g>
    </g>
    <g id="ytick_45">
     <g id="line2d_60">
      <g>
       <use xlink:href="#mced411ae9e" x="64.447656" y="126.653202" style="fill: #6b6860; stroke: #6b6860; stroke-width: 0.6"/>
      </g>
     </g>
    </g>
    <g id="ytick_46">
     <g id="line2d_61">
      <g>
       <use xlink:href="#mced411ae9e" x="64.447656" y="123.438129" style="fill: #6b6860; stroke: #6b6860; stroke-width: 0.6"/>
      </g>
     </g>
    </g>
    <g id="ytick_47">
     <g id="line2d_62">
      <g>
       <use xlink:href="#mced411ae9e" x="64.447656" y="120.602233" style="fill: #6b6860; stroke: #6b6860; stroke-width: 0.6"/>
      </g>
     </g>
    </g>
    <g id="ytick_48">
     <g id="line2d_63">
      <g>
       <use xlink:href="#mced411ae9e" x="64.447656" y="101.376335" style="fill: #6b6860; stroke: #6b6860; stroke-width: 0.6"/>
      </g>
     </g>
    </g>
    <g id="ytick_49">
     <g id="line2d_64">
      <g>
       <use xlink:href="#mced411ae9e" x="64.447656" y="91.613835" style="fill: #6b6860; stroke: #6b6860; stroke-width: 0.6"/>
      </g>
     </g>
    </g>
    <g id="ytick_50">
     <g id="line2d_65">
      <g>
       <use xlink:href="#mced411ae9e" x="64.447656" y="84.687232" style="fill: #6b6860; stroke: #6b6860; stroke-width: 0.6"/>
      </g>
     </g>
    </g>
    <g id="ytick_51">
     <g id="line2d_66">
      <g>
       <use xlink:href="#mced411ae9e" x="64.447656" y="79.31454" style="fill: #6b6860; stroke: #6b6860; stroke-width: 0.6"/>
      </g>
     </g>
    </g>
    <g id="ytick_52">
     <g id="line2d_67">
      <g>
       <use xlink:href="#mced411ae9e" x="64.447656" y="74.924732" style="fill: #6b6860; stroke: #6b6860; stroke-width: 0.6"/>
      </g>
     </g>
    </g>
    <g id="ytick_53">
     <g id="line2d_68">
      <g>
       <use xlink:href="#mced411ae9e" x="64.447656" y="71.213202" style="fill: #6b6860; stroke: #6b6860; stroke-width: 0.6"/>
      </g>
     </g>
    </g>
    <g id="ytick_54">
     <g id="line2d_69">
      <g>
       <use xlink:href="#mced411ae9e" x="64.447656" y="67.998129" style="fill: #6b6860; stroke: #6b6860; stroke-width: 0.6"/>
      </g>
     </g>
    </g>
    <g id="ytick_55">
     <g id="line2d_70">
      <g>
       <use xlink:href="#mced411ae9e" x="64.447656" y="65.162233" style="fill: #6b6860; stroke: #6b6860; stroke-width: 0.6"/>
      </g>
     </g>
    </g>
    <g id="text_17">
     <!-- False Positive Rate (%) -->
     <g style="fill: #2b2b2b" transform="translate(29.640312 285.6745) rotate(-90) scale(0.11 -0.11)">
      <defs>
       <path id="HelveticaNeue-46" d="M 499 4570 
L 499 0 
L 1107 0 
L 1107 2093 
L 3206 2093 
L 3206 2605 
L 1107 2605 
L 1107 4058 
L 3501 4058 
L 3501 4570 
L 499 4570 
z
" transform="scale(0.015625)"/>
       <path id="HelveticaNeue-73" d="M 742 1043 
L 198 1043 
Q 211 736 326 521 
Q 442 307 634 176 
Q 826 45 1075 -12 
Q 1325 -70 1600 -70 
Q 1850 -70 2102 -22 
Q 2355 26 2556 147 
Q 2758 269 2883 467 
Q 3008 666 3008 966 
Q 3008 1203 2915 1363 
Q 2822 1523 2672 1628 
Q 2522 1734 2326 1798 
Q 2131 1862 1926 1907 
Q 1734 1952 1542 1993 
Q 1350 2035 1196 2096 
Q 1043 2157 944 2249 
Q 845 2342 845 2483 
Q 845 2611 909 2691 
Q 973 2771 1075 2819 
Q 1178 2867 1302 2886 
Q 1427 2906 1549 2906 
Q 1683 2906 1814 2877 
Q 1946 2848 2054 2784 
Q 2163 2720 2233 2614 
Q 2304 2509 2317 2349 
L 2861 2349 
Q 2842 2650 2733 2851 
Q 2624 3053 2441 3171 
Q 2259 3290 2022 3338 
Q 1786 3386 1504 3386 
Q 1286 3386 1065 3331 
Q 845 3277 669 3165 
Q 493 3053 381 2873 
Q 269 2694 269 2445 
Q 269 2125 429 1945 
Q 589 1766 829 1667 
Q 1069 1568 1350 1513 
Q 1632 1459 1872 1392 
Q 2112 1325 2272 1216 
Q 2432 1107 2432 896 
Q 2432 742 2355 643 
Q 2278 544 2160 493 
Q 2042 442 1901 422 
Q 1760 403 1632 403 
Q 1466 403 1309 435 
Q 1152 467 1027 540 
Q 902 614 825 739 
Q 749 864 742 1043 
z
" transform="scale(0.015625)"/>
       <path id="HelveticaNeue-50" d="M 1107 2381 
L 1107 4058 
L 2298 4058 
Q 2816 4058 3056 3843 
Q 3296 3629 3296 3219 
Q 3296 2810 3056 2592 
Q 2816 2374 2298 2381 
L 1107 2381 
z
M 499 4570 
L 499 0 
L 1107 0 
L 1107 1869 
L 2502 1869 
Q 3194 1862 3549 2220 
Q 3904 2579 3904 3219 
Q 3904 3859 3549 4214 
Q 3194 4570 2502 4570 
L 499 4570 
z
" transform="scale(0.015625)"/>
       <path id="HelveticaNeue-69" d="M 986 3904 
L 986 4570 
L 442 4570 
L 442 3904 
L 986 3904 
z
M 442 3309 
L 442 0 
L 986 0 
L 986 3309 
L 442 3309 
z
" transform="scale(0.015625)"/>
       <path id="HelveticaNeue-76" d="M 1901 0 
L 3110 3309 
L 2541 3309 
L 1638 550 
L 1626 550 
L 698 3309 
L 90 3309 
L 1318 0 
L 1901 0 
z
" transform="scale(0.015625)"/>
       <path id="HelveticaNeue-52" d="M 499 4570 
L 499 0 
L 1107 0 
L 1107 1952 
L 2592 1952 
Q 2816 1952 2950 1885 
Q 3085 1818 3168 1706 
Q 3251 1594 3289 1443 
Q 3328 1293 3354 1126 
Q 3386 960 3392 787 
Q 3398 614 3404 464 
Q 3411 314 3433 192 
Q 3456 70 3520 0 
L 4198 0 
Q 4102 115 4054 265 
Q 4006 416 3980 582 
Q 3955 749 3948 921 
Q 3942 1094 3930 1261 
Q 3910 1427 3875 1580 
Q 3840 1734 3766 1859 
Q 3693 1984 3568 2073 
Q 3443 2163 3245 2202 
L 3245 2214 
Q 3661 2330 3849 2643 
Q 4038 2957 4038 3373 
Q 4038 3930 3670 4250 
Q 3302 4570 2650 4570 
L 499 4570 
z
M 2374 2464 
L 1107 2464 
L 1107 4058 
L 2618 4058 
Q 3046 4058 3238 3840 
Q 3430 3622 3430 3277 
Q 3430 3027 3344 2870 
Q 3258 2714 3114 2621 
Q 2970 2528 2778 2496 
Q 2586 2464 2374 2464 
z
" transform="scale(0.015625)"/>
       <path id="HelveticaNeue-25" d="M 1069 3251 
Q 1069 3398 1088 3561 
Q 1107 3725 1168 3862 
Q 1229 4000 1337 4093 
Q 1446 4186 1626 4186 
Q 1811 4186 1916 4093 
Q 2022 4000 2080 3862 
Q 2138 3725 2154 3561 
Q 2170 3398 2170 3258 
Q 2170 3110 2150 2944 
Q 2131 2778 2070 2640 
Q 2010 2502 1901 2412 
Q 1792 2323 1606 2323 
Q 1427 2323 1321 2416 
Q 1216 2509 1158 2646 
Q 1101 2784 1085 2947 
Q 1069 3110 1069 3251 
z
M 589 3238 
Q 589 2976 643 2745 
Q 698 2515 819 2342 
Q 941 2170 1139 2070 
Q 1338 1971 1626 1971 
Q 1907 1971 2099 2080 
Q 2291 2189 2416 2365 
Q 2541 2541 2595 2774 
Q 2650 3008 2650 3258 
Q 2650 3520 2602 3753 
Q 2554 3987 2435 4160 
Q 2317 4333 2121 4435 
Q 1926 4538 1626 4538 
Q 1331 4538 1132 4432 
Q 934 4326 812 4147 
Q 691 3968 640 3734 
Q 589 3501 589 3238 
z
M 4230 1203 
Q 4230 1350 4249 1513 
Q 4269 1677 4329 1814 
Q 4390 1952 4499 2045 
Q 4608 2138 4787 2138 
Q 4973 2138 5078 2045 
Q 5184 1952 5241 1814 
Q 5299 1677 5315 1513 
Q 5331 1350 5331 1210 
Q 5331 1062 5312 896 
Q 5293 730 5232 592 
Q 5171 454 5062 364 
Q 4954 275 4768 275 
Q 4589 275 4483 368 
Q 4378 461 4320 598 
Q 4262 736 4246 899 
Q 4230 1062 4230 1203 
z
M 3750 1190 
Q 3750 928 3804 697 
Q 3859 467 3980 297 
Q 4102 128 4300 29 
Q 4499 -70 4787 -70 
Q 5069 -70 5261 35 
Q 5453 141 5577 317 
Q 5702 493 5756 726 
Q 5811 960 5811 1210 
Q 5811 1472 5763 1705 
Q 5715 1939 5596 2112 
Q 5478 2285 5283 2387 
Q 5088 2490 4787 2490 
Q 4493 2490 4294 2384 
Q 4096 2278 3974 2099 
Q 3853 1920 3801 1686 
Q 3750 1453 3750 1190 
z
M 4646 4621 
L 1203 -134 
L 1754 -134 
L 5190 4621 
L 4646 4621 
z
" transform="scale(0.015625)"/>
      </defs>
      <use xlink:href="#HelveticaNeue-46"/>
      <use xlink:href="#HelveticaNeue-61" transform="translate(57.399994 0)"/>
      <use xlink:href="#HelveticaNeue-6c" transform="translate(111.099991 0)"/>
      <use xlink:href="#HelveticaNeue-73" transform="translate(133.299988 0)"/>
      <use xlink:href="#HelveticaNeue-65" transform="translate(183.299973 0)"/>
      <use xlink:href="#HelveticaNeue-20" transform="translate(236.999969 0)"/>
      <use xlink:href="#HelveticaNeue-50" transform="translate(264.799957 0)"/>
      <use xlink:href="#HelveticaNeue-6f" transform="translate(329.599945 0)"/>
      <use xlink:href="#HelveticaNeue-73" transform="translate(386.999939 0)"/>
      <use xlink:href="#HelveticaNeue-69" transform="translate(436.999924 0)"/>
      <use xlink:href="#HelveticaNeue-74" transform="translate(459.199921 0)"/>
      <use xlink:href="#HelveticaNeue-69" transform="translate(490.699905 0)"/>
      <use xlink:href="#HelveticaNeue-76" transform="translate(512.899902 0)"/>
      <use xlink:href="#HelveticaNeue-65" transform="translate(562.899887 0)"/>
      <use xlink:href="#HelveticaNeue-20" transform="translate(616.599884 0)"/>
      <use xlink:href="#HelveticaNeue-52" transform="translate(644.399872 0)"/>
      <use xlink:href="#HelveticaNeue-61" transform="translate(712.899857 0)"/>
      <use xlink:href="#HelveticaNeue-74" transform="translate(766.599854 0)"/>
      <use xlink:href="#HelveticaNeue-65" transform="translate(798.099838 0)"/>
      <use xlink:href="#HelveticaNeue-20" transform="translate(851.799835 0)"/>
      <use xlink:href="#HelveticaNeue-28" transform="translate(879.599823 0)"/>
      <use xlink:href="#HelveticaNeue-25" transform="translate(905.499817 0)"/>
      <use xlink:href="#HelveticaNeue-29" transform="translate(1005.499802 0)"/>
     </g>
    </g>
   </g>
   <g id="line2d_71">
    <path d="M 64.447656 89.218552 
L 571.064334 451.382937 
L 571.064334 451.382937 
" clip-path="url(#p292263295b)" style="fill: none; stroke: #2e4d37; stroke-width: 2.5; stroke-linecap: square"/>
   </g>
   <g id="line2d_72">
    <path d="M 64.447656 173.505437 
L 622.447656 173.505437 
" clip-path="url(#p292263295b)" style="fill: none; stroke-dasharray: 3.7,1.6; stroke-dashoffset: 0; stroke: #6b6860; stroke-opacity: 0.6"/>
   </g>
   <g id="line2d_73">
    <path d="M 64.447656 228.945437 
L 622.447656 228.945437 
" clip-path="url(#p292263295b)" style="fill: none; stroke-dasharray: 3.7,1.6; stroke-dashoffset: 0; stroke: #6b6860; stroke-opacity: 0.6"/>
   </g>
   <g id="line2d_74">
    <path d="M 64.447656 284.385437 
L 622.447656 284.385437 
" clip-path="url(#p292263295b)" style="fill: none; stroke-dasharray: 3.7,1.6; stroke-dashoffset: 0; stroke: #6b6860; stroke-opacity: 0.6"/>
   </g>
   <g id="patch_3">
    <path d="M 64.447656 395.265437 
L 64.447656 62.625437 
" style="fill: none; stroke: #c4b892; stroke-width: 0.8; stroke-linejoin: miter; stroke-linecap: square"/>
   </g>
   <g id="patch_4">
    <path d="M 64.447656 395.265437 
L 622.447656 395.265437 
" style="fill: none; stroke: #c4b892; stroke-width: 0.8; stroke-linejoin: miter; stroke-linecap: square"/>
   </g>
   <g id="patch_5">
    <path d="M 237.707757 151.559683 
Q 210.717353 162.166217 184.767519 172.363834 
" style="fill: none; stroke: #6b6860; stroke-linecap: round"/>
    <path d="M 188.776435 172.722431 
L 184.767519 172.363834 
L 187.459747 169.37186 
" style="fill: none; stroke: #6b6860; stroke-linecap: round"/>
   </g>
   <g id="text_18">
    <!-- 1% at 208 GB -->
    <g style="fill: #2b2b2b" transform="translate(226.502486 147.053835) scale(0.09 -0.09)">
     <use xlink:href="#HelveticaNeue-31"/>
     <use xlink:href="#HelveticaNeue-25" transform="translate(55.599991 0)"/>
     <use xlink:href="#HelveticaNeue-20" transform="translate(155.599976 0)"/>
     <use xlink:href="#HelveticaNeue-61" transform="translate(183.399963 0)"/>
     <use xlink:href="#HelveticaNeue-74" transform="translate(237.09996 0)"/>
     <use xlink:href="#HelveticaNeue-20" transform="translate(268.599945 0)"/>
     <use xlink:href="#HelveticaNeue-32" transform="translate(296.399933 0)"/>
     <use xlink:href="#HelveticaNeue-30" transform="translate(351.999924 0)"/>
     <use xlink:href="#HelveticaNeue-38" transform="translate(407.599915 0)"/>
     <use xlink:href="#HelveticaNeue-20" transform="translate(463.199905 0)"/>
     <use xlink:href="#HelveticaNeue-47" transform="translate(490.999893 0)"/>
     <use xlink:href="#HelveticaNeue-42" transform="translate(566.899887 0)"/>
    </g>
   </g>
   <g id="patch_6">
    <path d="M 318.937099 206.965612 
Q 290.476527 217.604711 263.063209 227.852328 
" style="fill: none; stroke: #6b6860; stroke-linecap: round"/>
    <path d="M 267.065577 228.277822 
L 263.063209 227.852328 
L 265.805025 224.905729 
" style="fill: none; stroke: #6b6860; stroke-linecap: round"/>
   </g>
   <g id="text_19">
    <!-- 0.1% at 313 GB -->
    <g style="fill: #2b2b2b" transform="translate(304.779039 202.493835) scale(0.09 -0.09)">
     <defs>
      <path id="HelveticaNeue-2e" d="M 531 710 
L 531 0 
L 1242 0 
L 1242 710 
L 531 710 
z
" transform="scale(0.015625)"/>
     </defs>
     <use xlink:href="#HelveticaNeue-30"/>
     <use xlink:href="#HelveticaNeue-2e" transform="translate(55.599991 0)"/>
     <use xlink:href="#HelveticaNeue-31" transform="translate(83.399979 0)"/>
     <use xlink:href="#HelveticaNeue-25" transform="translate(138.999969 0)"/>
     <use xlink:href="#HelveticaNeue-20" transform="translate(238.999954 0)"/>
     <use xlink:href="#HelveticaNeue-61" transform="translate(266.799942 0)"/>
     <use xlink:href="#HelveticaNeue-74" transform="translate(320.499939 0)"/>
     <use xlink:href="#HelveticaNeue-20" transform="translate(351.999924 0)"/>
     <use xlink:href="#HelveticaNeue-33" transform="translate(379.799911 0)"/>
     <use xlink:href="#HelveticaNeue-31" transform="translate(435.399902 0)"/>
     <use xlink:href="#HelveticaNeue-33" transform="translate(490.999893 0)"/>
     <use xlink:href="#HelveticaNeue-20" transform="translate(546.599884 0)"/>
     <use xlink:href="#HelveticaNeue-47" transform="translate(574.399872 0)"/>
     <use xlink:href="#HelveticaNeue-42" transform="translate(650.299866 0)"/>
    </g>
   </g>
   <g id="patch_7">
    <path d="M 398.059667 262.386233 
Q 368.618651 273.045454 340.228889 283.324066 
" style="fill: none; stroke: #6b6860; stroke-linecap: round"/>
    <path d="M 344.226634 283.791011 
L 340.228889 283.324066 
L 343.001092 280.406037 
" style="fill: none; stroke: #6b6860; stroke-linecap: round"/>
   </g>
   <g id="text_20">
    <!-- 0.01% at 417 GB -->
    <g style="fill: #2b2b2b" transform="translate(381.937356 257.933835) scale(0.09 -0.09)">
     <use xlink:href="#HelveticaNeue-30"/>
     <use xlink:href="#HelveticaNeue-2e" transform="translate(55.599991 0)"/>
     <use xlink:href="#HelveticaNeue-30" transform="translate(83.399979 0)"/>
     <use xlink:href="#HelveticaNeue-31" transform="translate(138.999969 0)"/>
     <use xlink:href="#HelveticaNeue-25" transform="translate(194.59996 0)"/>
     <use xlink:href="#HelveticaNeue-20" transform="translate(294.599945 0)"/>
     <use xlink:href="#HelveticaNeue-61" transform="translate(322.399933 0)"/>
     <use xlink:href="#HelveticaNeue-74" transform="translate(376.09993 0)"/>
     <use xlink:href="#HelveticaNeue-20" transform="translate(407.599915 0)"/>
     <use xlink:href="#HelveticaNeue-34" transform="translate(435.399902 0)"/>
     <use xlink:href="#HelveticaNeue-31" transform="translate(490.999893 0)"/>
     <use xlink:href="#HelveticaNeue-37" transform="translate(546.599884 0)"/>
     <use xlink:href="#HelveticaNeue-20" transform="translate(602.199875 0)"/>
     <use xlink:href="#HelveticaNeue-47" transform="translate(629.999863 0)"/>
     <use xlink:href="#HelveticaNeue-42" transform="translate(705.899857 0)"/>
    </g>
   </g>
   <g id="text_21">
    <!-- Bloom Filter: False Positive Rate vs. Memory -->
    <g style="fill: #2b2b2b" transform="translate(203.690469 31.596875) scale(0.14 -0.14)">
     <defs>
      <path id="HelveticaNeue-3a" d="M 1242 2598 
L 1242 3309 
L 531 3309 
L 531 2598 
L 1242 2598 
z
M 531 710 
L 531 0 
L 1242 0 
L 1242 710 
L 531 710 
z
" transform="scale(0.015625)"/>
     </defs>
     <use xlink:href="#HelveticaNeue-42"/>
     <use xlink:href="#HelveticaNeue-6c" transform="translate(68.499985 0)"/>
     <use xlink:href="#HelveticaNeue-6f" transform="translate(90.699982 0)"/>
     <use xlink:href="#HelveticaNeue-6f" transform="translate(148.099976 0)"/>
     <use xlink:href="#HelveticaNeue-6d" transform="translate(205.499969 0)"/>
     <use xlink:href="#HelveticaNeue-20" transform="translate(290.799957 0)"/>
     <use xlink:href="#HelveticaNeue-46" transform="translate(318.599945 0)"/>
     <use xlink:href="#HelveticaNeue-69" transform="translate(375.999939 0)"/>
     <use xlink:href="#HelveticaNeue-6c" transform="translate(398.199936 0)"/>
     <use xlink:href="#HelveticaNeue-74" transform="translate(420.399933 0)"/>
     <use xlink:href="#HelveticaNeue-65" transform="translate(451.899918 0)"/>
     <use xlink:href="#HelveticaNeue-72" transform="translate(505.599915 0)"/>
     <use xlink:href="#HelveticaNeue-3a" transform="translate(538.899902 0)"/>
     <use xlink:href="#HelveticaNeue-20" transform="translate(566.69989 0)"/>
     <use xlink:href="#HelveticaNeue-46" transform="translate(594.499878 0)"/>
     <use xlink:href="#HelveticaNeue-61" transform="translate(651.899872 0)"/>
     <use xlink:href="#HelveticaNeue-6c" transform="translate(705.599869 0)"/>
     <use xlink:href="#HelveticaNeue-73" transform="translate(727.799866 0)"/>
     <use xlink:href="#HelveticaNeue-65" transform="translate(777.79985 0)"/>
     <use xlink:href="#HelveticaNeue-20" transform="translate(831.499847 0)"/>
     <use xlink:href="#HelveticaNeue-50" transform="translate(859.299835 0)"/>
     <use xlink:href="#HelveticaNeue-6f" transform="translate(924.099823 0)"/>
     <use xlink:href="#HelveticaNeue-73" transform="translate(981.499817 0)"/>
     <use xlink:href="#HelveticaNeue-69" transform="translate(1031.499802 0)"/>
     <use xlink:href="#HelveticaNeue-74" transform="translate(1053.699799 0)"/>
     <use xlink:href="#HelveticaNeue-69" transform="translate(1085.199783 0)"/>
     <use xlink:href="#HelveticaNeue-76" transform="translate(1107.39978 0)"/>
     <use xlink:href="#HelveticaNeue-65" transform="translate(1157.399765 0)"/>
     <use xlink:href="#HelveticaNeue-20" transform="translate(1211.099762 0)"/>
     <use xlink:href="#HelveticaNeue-52" transform="translate(1238.89975 0)"/>
     <use xlink:href="#HelveticaNeue-61" transform="translate(1307.399734 0)"/>
     <use xlink:href="#HelveticaNeue-74" transform="translate(1361.099731 0)"/>
     <use xlink:href="#HelveticaNeue-65" transform="translate(1392.599716 0)"/>
     <use xlink:href="#HelveticaNeue-20" transform="translate(1446.299713 0)"/>
     <use xlink:href="#HelveticaNeue-76" transform="translate(1474.099701 0)"/>
     <use xlink:href="#HelveticaNeue-73" transform="translate(1524.099686 0)"/>
     <use xlink:href="#HelveticaNeue-2e" transform="translate(1574.09967 0)"/>
     <use xlink:href="#HelveticaNeue-20" transform="translate(1601.899658 0)"/>
     <use xlink:href="#HelveticaNeue-4d" transform="translate(1629.699646 0)"/>
     <use xlink:href="#HelveticaNeue-65" transform="translate(1716.799637 0)"/>
     <use xlink:href="#HelveticaNeue-6d" transform="translate(1770.499634 0)"/>
     <use xlink:href="#HelveticaNeue-6f" transform="translate(1855.799622 0)"/>
     <use xlink:href="#HelveticaNeue-72" transform="translate(1913.199615 0)"/>
     <use xlink:href="#HelveticaNeue-79" transform="translate(1946.499603 0)"/>
    </g>
    <!-- 174B unique elements, optimal hash functions -->
    <g style="fill: #2b2b2b" transform="translate(198.727031 46.625437) scale(0.14 -0.14)">
     <defs>
      <path id="HelveticaNeue-75" d="M 3149 0 
L 3149 3309 
L 2605 3309 
L 2605 1440 
Q 2605 1216 2544 1027 
Q 2483 838 2361 697 
Q 2240 557 2057 480 
Q 1875 403 1626 403 
Q 1312 403 1133 582 
Q 954 762 954 1069 
L 954 3309 
L 410 3309 
L 410 1133 
Q 410 864 464 643 
Q 518 422 652 262 
Q 787 102 1004 16 
Q 1222 -70 1549 -70 
Q 1914 -70 2182 74 
Q 2451 218 2624 525 
L 2637 525 
L 2637 0 
L 3149 0 
z
" transform="scale(0.015625)"/>
      <path id="HelveticaNeue-6e" d="M 410 3309 
L 410 0 
L 954 0 
L 954 1869 
Q 954 2093 1014 2281 
Q 1075 2470 1196 2611 
Q 1318 2752 1500 2829 
Q 1683 2906 1933 2906 
Q 2246 2906 2425 2726 
Q 2605 2547 2605 2240 
L 2605 0 
L 3149 0 
L 3149 2176 
Q 3149 2445 3094 2665 
Q 3040 2886 2905 3046 
Q 2771 3206 2553 3296 
Q 2336 3386 2010 3386 
Q 1274 3386 934 2784 
L 922 2784 
L 922 3309 
L 410 3309 
z
" transform="scale(0.015625)"/>
      <path id="HelveticaNeue-71" d="M 806 1626 
Q 806 1869 857 2099 
Q 909 2330 1024 2509 
Q 1139 2688 1331 2797 
Q 1523 2906 1798 2906 
Q 2080 2906 2278 2800 
Q 2477 2694 2601 2521 
Q 2726 2349 2784 2121 
Q 2842 1894 2842 1651 
Q 2842 1421 2787 1197 
Q 2733 973 2611 797 
Q 2490 621 2298 512 
Q 2106 403 1830 403 
Q 1568 403 1373 505 
Q 1178 608 1053 781 
Q 928 954 867 1174 
Q 806 1395 806 1626 
z
M 3366 -1261 
L 3366 3309 
L 2822 3309 
L 2822 2867 
L 2810 2867 
Q 2720 3014 2589 3113 
Q 2458 3213 2310 3273 
Q 2163 3334 2016 3360 
Q 1869 3386 1741 3386 
Q 1363 3386 1078 3248 
Q 794 3110 605 2876 
Q 416 2643 323 2329 
Q 230 2016 230 1664 
Q 230 1312 326 998 
Q 422 685 611 448 
Q 800 211 1085 70 
Q 1370 -70 1754 -70 
Q 2099 -70 2387 51 
Q 2675 173 2810 448 
L 2822 448 
L 2822 -1261 
L 3366 -1261 
z
" transform="scale(0.015625)"/>
      <path id="HelveticaNeue-2c" d="M 531 710 
L 531 0 
L 909 0 
Q 915 -77 899 -166 
Q 883 -256 838 -342 
Q 794 -429 720 -502 
Q 646 -576 538 -614 
L 538 -934 
Q 909 -826 1075 -563 
Q 1242 -301 1242 64 
L 1242 710 
L 531 710 
z
" transform="scale(0.015625)"/>
      <path id="HelveticaNeue-70" d="M 429 3309 
L 429 -1261 
L 973 -1261 
L 973 442 
L 986 442 
Q 1075 294 1206 195 
Q 1338 96 1485 38 
Q 1632 -19 1782 -44 
Q 1933 -70 2054 -70 
Q 2432 -70 2717 64 
Q 3002 198 3190 432 
Q 3379 666 3472 979 
Q 3565 1293 3565 1645 
Q 3565 1997 3469 2310 
Q 3373 2624 3184 2864 
Q 2995 3104 2710 3245 
Q 2426 3386 2042 3386 
Q 1696 3386 1408 3261 
Q 1120 3136 986 2861 
L 973 2861 
L 973 3309 
L 429 3309 
z
M 2989 1683 
Q 2989 1440 2937 1209 
Q 2886 979 2771 800 
Q 2656 621 2467 512 
Q 2278 403 1997 403 
Q 1715 403 1516 508 
Q 1318 614 1193 787 
Q 1069 960 1011 1187 
Q 954 1414 954 1658 
Q 954 1888 1008 2112 
Q 1062 2336 1184 2512 
Q 1306 2688 1498 2797 
Q 1690 2906 1965 2906 
Q 2227 2906 2422 2803 
Q 2618 2701 2742 2528 
Q 2867 2355 2928 2134 
Q 2989 1914 2989 1683 
z
" transform="scale(0.015625)"/>
      <path id="HelveticaNeue-68" d="M 410 4570 
L 410 0 
L 954 0 
L 954 1869 
Q 954 2093 1014 2281 
Q 1075 2470 1196 2611 
Q 1318 2752 1500 2829 
Q 1683 2906 1933 2906 
Q 2246 2906 2425 2726 
Q 2605 2547 2605 2240 
L 2605 0 
L 3149 0 
L 3149 2176 
Q 3149 2445 3094 2665 
Q 3040 2886 2905 3046 
Q 2771 3206 2553 3296 
Q 2336 3386 2010 3386 
Q 1862 3386 1705 3354 
Q 1549 3322 1405 3254 
Q 1261 3187 1145 3081 
Q 1030 2976 966 2822 
L 954 2822 
L 954 4570 
L 410 4570 
z
" transform="scale(0.015625)"/>
      <path id="HelveticaNeue-66" d="M 634 2829 
L 634 0 
L 1178 0 
L 1178 2829 
L 1818 2829 
L 1818 3309 
L 1178 3309 
L 1178 3770 
Q 1178 3987 1286 4064 
Q 1395 4141 1594 4141 
Q 1664 4141 1747 4131 
Q 1830 4122 1901 4096 
L 1901 4570 
Q 1824 4595 1725 4608 
Q 1626 4621 1549 4621 
Q 1101 4621 867 4413 
Q 634 4205 634 3802 
L 634 3309 
L 77 3309 
L 77 2829 
L 634 2829 
z
" transform="scale(0.015625)"/>
      <path id="HelveticaNeue-63" d="M 2656 2246 
L 3219 2246 
Q 3187 2541 3065 2755 
Q 2944 2970 2755 3110 
Q 2566 3251 2320 3318 
Q 2074 3386 1792 3386 
Q 1402 3386 1107 3248 
Q 813 3110 617 2870 
Q 422 2630 326 2307 
Q 230 1984 230 1613 
Q 230 1242 329 931 
Q 429 621 624 397 
Q 819 173 1110 51 
Q 1402 -70 1779 -70 
Q 2413 -70 2781 262 
Q 3149 595 3238 1210 
L 2682 1210 
Q 2630 826 2403 614 
Q 2176 403 1773 403 
Q 1517 403 1331 505 
Q 1146 608 1030 777 
Q 915 947 860 1164 
Q 806 1382 806 1613 
Q 806 1862 857 2096 
Q 909 2330 1027 2509 
Q 1146 2688 1344 2797 
Q 1542 2906 1837 2906 
Q 2182 2906 2387 2733 
Q 2592 2560 2656 2246 
z
" transform="scale(0.015625)"/>
     </defs>
     <use xlink:href="#HelveticaNeue-31"/>
     <use xlink:href="#HelveticaNeue-37" transform="translate(55.599991 0)"/>
     <use xlink:href="#HelveticaNeue-34" transform="translate(111.199982 0)"/>
     <use xlink:href="#HelveticaNeue-42" transform="translate(166.799973 0)"/>
     <use xlink:href="#HelveticaNeue-20" transform="translate(235.299957 0)"/>
     <use xlink:href="#HelveticaNeue-75" transform="translate(263.099945 0)"/>
     <use xlink:href="#HelveticaNeue-6e" transform="translate(318.699936 0)"/>
     <use xlink:href="#HelveticaNeue-69" transform="translate(374.299927 0)"/>
     <use xlink:href="#HelveticaNeue-71" transform="translate(396.499924 0)"/>
     <use xlink:href="#HelveticaNeue-75" transform="translate(455.799911 0)"/>
     <use xlink:href="#HelveticaNeue-65" transform="translate(511.399902 0)"/>
     <use xlink:href="#HelveticaNeue-20" transform="translate(565.099899 0)"/>
     <use xlink:href="#HelveticaNeue-65" transform="translate(592.899887 0)"/>
     <use xlink:href="#HelveticaNeue-6c" transform="translate(646.599884 0)"/>
     <use xlink:href="#HelveticaNeue-65" transform="translate(668.799881 0)"/>
     <use xlink:href="#HelveticaNeue-6d" transform="translate(722.499878 0)"/>
     <use xlink:href="#HelveticaNeue-65" transform="translate(807.799866 0)"/>
     <use xlink:href="#HelveticaNeue-6e" transform="translate(861.499863 0)"/>
     <use xlink:href="#HelveticaNeue-74" transform="translate(917.099854 0)"/>
     <use xlink:href="#HelveticaNeue-73" transform="translate(948.599838 0)"/>
     <use xlink:href="#HelveticaNeue-2c" transform="translate(998.599823 0)"/>
     <use xlink:href="#HelveticaNeue-20" transform="translate(1026.399811 0)"/>
     <use xlink:href="#HelveticaNeue-6f" transform="translate(1054.199799 0)"/>
     <use xlink:href="#HelveticaNeue-70" transform="translate(1111.599792 0)"/>
     <use xlink:href="#HelveticaNeue-74" transform="translate(1170.89978 0)"/>
     <use xlink:href="#HelveticaNeue-69" transform="translate(1202.399765 0)"/>
     <use xlink:href="#HelveticaNeue-6d" transform="translate(1224.599762 0)"/>
     <use xlink:href="#HelveticaNeue-61" transform="translate(1309.89975 0)"/>
     <use xlink:href="#HelveticaNeue-6c" transform="translate(1363.599747 0)"/>
     <use xlink:href="#HelveticaNeue-20" transform="translate(1385.799744 0)"/>
     <use xlink:href="#HelveticaNeue-68" transform="translate(1413.599731 0)"/>
     <use xlink:href="#HelveticaNeue-61" transform="translate(1469.199722 0)"/>
     <use xlink:href="#HelveticaNeue-73" transform="translate(1522.899719 0)"/>
     <use xlink:href="#HelveticaNeue-68" transform="translate(1572.899704 0)"/>
     <use xlink:href="#HelveticaNeue-20" transform="translate(1628.499695 0)"/>
     <use xlink:href="#HelveticaNeue-66" transform="translate(1656.299683 0)"/>
     <use xlink:href="#HelveticaNeue-75" transform="translate(1685.899673 0)"/>
     <use xlink:href="#HelveticaNeue-6e" transform="translate(1741.499664 0)"/>
     <use xlink:href="#HelveticaNeue-63" transform="translate(1797.099655 0)"/>
     <use xlink:href="#HelveticaNeue-74" transform="translate(1850.799652 0)"/>
     <use xlink:href="#HelveticaNeue-69" transform="translate(1882.299637 0)"/>
     <use xlink:href="#HelveticaNeue-6f" transform="translate(1904.499634 0)"/>
     <use xlink:href="#HelveticaNeue-6e" transform="translate(1961.899628 0)"/>
     <use xlink:href="#HelveticaNeue-73" transform="translate(2017.499619 0)"/>
    </g>
   </g>
  </g>
 </g>
 <defs>
  <clipPath id="p292263295b">
   <rect x="64.447656" y="62.625437" width="558" height="332.64"/>
  </clipPath>
 </defs>
</svg>
