<?xml version="1.0" encoding="utf-8" standalone="no"?>
<!DOCTYPE svg PUBLIC "-//W3C//DTD SVG 1.1//EN"
  "http://www.w3.org/Graphics/SVG/1.1/DTD/svg11.dtd">
<svg xmlns:xlink="http://www.w3.org/1999/xlink" width="590.430781pt" height="380.052656pt" viewBox="0 0 590.430781 380.052656" xmlns="http://www.w3.org/2000/svg" version="1.1">
 <metadata>
  <rdf:RDF xmlns:dc="http://purl.org/dc/elements/1.1/" xmlns:cc="http://creativecommons.org/ns#" xmlns:rdf="http://www.w3.org/1999/02/22-rdf-syntax-ns#">
   <cc:Work>
    <dc:type rdf:resource="http://purl.org/dc/dcmitype/StillImage"/>
    <dc:date>2026-02-13T23:09:15.862305</dc:date>
    <dc:format>image/svg+xml</dc:format>
    <dc:creator>
     <cc:Agent>
      <dc:title>Matplotlib v3.10.8, https://matplotlib.org/</dc:title>
     </cc:Agent>
    </dc:creator>
   </cc:Work>
  </rdf:RDF>
 </metadata>
 <defs>
  <style type="text/css">*{stroke-linejoin: round; stroke-linecap: butt}</style>
 </defs>
 <g id="figure_1">
  <g id="patch_1">
   <path d="M 0 380.052656 
L 590.430781 380.052656 
L 590.430781 0 
L 0 0 
z
" style="fill: #ebe1c3"/>
  </g>
  <g id="axes_1">
   <g id="patch_2">
    <path d="M 56.814531 325.033125 
L 531.114531 325.033125 
L 531.114531 47.833125 
L 56.814531 47.833125 
z
" style="fill: #ebe1c3"/>
   </g>
   <g id="matplotlib.axis_1">
    <g id="xtick_1">
     <g id="line2d_1">
      <defs>
       <path id="m6bba91d44d" d="M 0 0 
L 0 3.5 
" style="stroke: #6b6860; stroke-width: 0.8"/>
      </defs>
      <g>
       <use xlink:href="#m6bba91d44d" x="78.373622" y="325.033125" style="fill: #6b6860; stroke: #6b6860; stroke-width: 0.8"/>
      </g>
     </g>
     <g id="text_1">
      <!-- 0 -->
      <g style="fill: #2b2b2b" transform="translate(75.871903 338.459688) scale(0.09 -0.09)">
       <defs>
        <path id="HelveticaNeue-30" d="M 845 2234 
Q 845 2400 848 2601 
Q 851 2803 880 3004 
Q 909 3206 963 3398 
Q 1018 3590 1123 3734 
Q 1229 3878 1389 3968 
Q 1549 4058 1779 4058 
Q 2010 4058 2170 3968 
Q 2330 3878 2435 3734 
Q 2541 3590 2595 3398 
Q 2650 3206 2678 3004 
Q 2707 2803 2710 2601 
Q 2714 2400 2714 2234 
Q 2714 1978 2698 1661 
Q 2682 1344 2595 1065 
Q 2509 787 2317 595 
Q 2125 403 1779 403 
Q 1434 403 1242 595 
Q 1050 787 963 1065 
Q 877 1344 861 1661 
Q 845 1978 845 2234 
z
M 269 2227 
Q 269 1978 281 1709 
Q 294 1440 345 1184 
Q 397 928 493 701 
Q 589 474 755 301 
Q 922 128 1174 29 
Q 1427 -70 1779 -70 
Q 2138 -70 2387 29 
Q 2637 128 2803 301 
Q 2970 474 3066 701 
Q 3162 928 3213 1184 
Q 3264 1440 3277 1709 
Q 3290 1978 3290 2227 
Q 3290 2477 3277 2745 
Q 3264 3014 3213 3270 
Q 3162 3526 3066 3756 
Q 2970 3987 2803 4160 
Q 2637 4333 2384 4435 
Q 2131 4538 1779 4538 
Q 1427 4538 1174 4435 
Q 922 4333 755 4160 
Q 589 3987 493 3756 
Q 397 3526 345 3270 
Q 294 3014 281 2745 
Q 269 2477 269 2227 
z
" transform="scale(0.015625)"/>
       </defs>
       <use xlink:href="#HelveticaNeue-30"/>
      </g>
     </g>
    </g>
    <g id="xtick_2">
     <g id="line2d_2">
      <g>
       <use xlink:href="#m6bba91d44d" x="168.203168" y="325.033125" style="fill: #6b6860; stroke: #6b6860; stroke-width: 0.8"/>
      </g>
     </g>
     <g id="text_2">
      <!-- 5 -->
      <g style="fill: #2b2b2b" transform="translate(165.701449 338.459688) scale(0.09 -0.09)">
       <defs>
        <path id="HelveticaNeue-35" d="M 3008 3981 
L 3008 4461 
L 768 4461 
L 346 2106 
L 813 2080 
Q 973 2272 1181 2390 
Q 1389 2509 1658 2509 
Q 1888 2509 2077 2432 
Q 2266 2355 2400 2217 
Q 2534 2080 2608 1891 
Q 2682 1702 2682 1478 
Q 2682 1210 2605 1008 
Q 2528 806 2397 672 
Q 2266 538 2090 470 
Q 1914 403 1722 403 
Q 1517 403 1347 464 
Q 1178 525 1053 637 
Q 928 749 854 899 
Q 781 1050 768 1222 
L 224 1222 
Q 230 915 345 672 
Q 461 429 659 265 
Q 858 102 1117 16 
Q 1376 -70 1670 -70 
Q 2067 -70 2364 54 
Q 2662 179 2860 390 
Q 3059 602 3158 874 
Q 3258 1146 3258 1434 
Q 3258 1824 3142 2115 
Q 3027 2406 2828 2601 
Q 2630 2797 2361 2893 
Q 2093 2989 1792 2989 
Q 1562 2989 1328 2909 
Q 1094 2829 947 2662 
L 934 2675 
L 1178 3981 
L 3008 3981 
z
" transform="scale(0.015625)"/>
       </defs>
       <use xlink:href="#HelveticaNeue-35"/>
      </g>
     </g>
    </g>
    <g id="xtick_3">
     <g id="line2d_3">
      <g>
       <use xlink:href="#m6bba91d44d" x="258.032713" y="325.033125" style="fill: #6b6860; stroke: #6b6860; stroke-width: 0.8"/>
      </g>
     </g>
     <g id="text_3">
      <!-- 10 -->
      <g style="fill: #2b2b2b" transform="translate(253.029276 338.459688) scale(0.09 -0.09)">
       <defs>
        <path id="HelveticaNeue-31" d="M 2278 0 
L 2278 4538 
L 1862 4538 
Q 1818 4282 1696 4115 
Q 1574 3949 1398 3853 
Q 1222 3757 1004 3721 
Q 787 3686 557 3686 
L 557 3251 
L 1734 3251 
L 1734 0 
L 2278 0 
z
" transform="scale(0.015625)"/>
       </defs>
       <use xlink:href="#HelveticaNeue-31"/>
       <use xlink:href="#HelveticaNeue-30" transform="translate(55.599991 0)"/>
      </g>
     </g>
    </g>
    <g id="xtick_4">
     <g id="line2d_4">
      <g>
       <use xlink:href="#m6bba91d44d" x="347.862259" y="325.033125" style="fill: #6b6860; stroke: #6b6860; stroke-width: 0.8"/>
      </g>
     </g>
     <g id="text_4">
      <!-- 15 -->
      <g style="fill: #2b2b2b" transform="translate(342.858821 338.459688) scale(0.09 -0.09)">
       <use xlink:href="#HelveticaNeue-31"/>
       <use xlink:href="#HelveticaNeue-35" transform="translate(55.599991 0)"/>
      </g>
     </g>
    </g>
    <g id="xtick_5">
     <g id="line2d_5">
      <g>
       <use xlink:href="#m6bba91d44d" x="437.691804" y="325.033125" style="fill: #6b6860; stroke: #6b6860; stroke-width: 0.8"/>
      </g>
     </g>
     <g id="text_5">
      <!-- 20 -->
      <g style="fill: #2b2b2b" transform="translate(432.688366 338.459688) scale(0.09 -0.09)">
       <defs>
        <path id="HelveticaNeue-32" d="M 282 2931 
L 826 2931 
Q 819 3136 867 3337 
Q 915 3539 1024 3699 
Q 1133 3859 1302 3958 
Q 1472 4058 1709 4058 
Q 1888 4058 2048 4000 
Q 2208 3942 2326 3833 
Q 2445 3725 2515 3574 
Q 2586 3424 2586 3238 
Q 2586 3002 2512 2822 
Q 2438 2643 2294 2489 
Q 2150 2336 1932 2185 
Q 1715 2035 1427 1856 
Q 1190 1715 972 1555 
Q 755 1395 582 1184 
Q 410 973 298 688 
Q 186 403 154 0 
L 3117 0 
L 3117 480 
L 787 480 
Q 826 691 950 854 
Q 1075 1018 1251 1158 
Q 1427 1299 1638 1424 
Q 1850 1549 2061 1677 
Q 2272 1811 2470 1958 
Q 2669 2106 2822 2288 
Q 2976 2470 3069 2700 
Q 3162 2931 3162 3232 
Q 3162 3552 3050 3795 
Q 2938 4038 2746 4201 
Q 2554 4365 2294 4451 
Q 2035 4538 1741 4538 
Q 1382 4538 1100 4416 
Q 819 4294 630 4080 
Q 442 3866 352 3571 
Q 262 3277 282 2931 
z
" transform="scale(0.015625)"/>
       </defs>
       <use xlink:href="#HelveticaNeue-32"/>
       <use xlink:href="#HelveticaNeue-30" transform="translate(55.599991 0)"/>
      </g>
     </g>
    </g>
    <g id="xtick_6">
     <g id="line2d_6">
      <g>
       <use xlink:href="#m6bba91d44d" x="527.521349" y="325.033125" style="fill: #6b6860; stroke: #6b6860; stroke-width: 0.8"/>
      </g>
     </g>
     <g id="text_6">
      <!-- 25 -->
      <g style="fill: #2b2b2b" transform="translate(522.517912 338.459688) scale(0.09 -0.09)">
       <use xlink:href="#HelveticaNeue-32"/>
       <use xlink:href="#HelveticaNeue-35" transform="translate(55.599991 0)"/>
      </g>
     </g>
    </g>
    <g id="text_7">
     <!-- Hour of Day -->
     <g style="fill: #2b2b2b" transform="translate(264.528359 356.175313) scale(0.11 -0.11)">
      <defs>
       <path id="HelveticaNeue-48" d="M 499 4570 
L 499 0 
L 1107 0 
L 1107 2093 
L 3514 2093 
L 3514 0 
L 4122 0 
L 4122 4570 
L 3514 4570 
L 3514 2605 
L 1107 2605 
L 1107 4570 
L 499 4570 
z
" transform="scale(0.015625)"/>
       <path id="HelveticaNeue-6f" d="M 806 1651 
Q 806 1952 886 2185 
Q 966 2419 1107 2579 
Q 1248 2739 1437 2822 
Q 1626 2906 1837 2906 
Q 2048 2906 2237 2822 
Q 2426 2739 2566 2579 
Q 2707 2419 2787 2185 
Q 2867 1952 2867 1651 
Q 2867 1350 2787 1116 
Q 2707 883 2566 726 
Q 2426 570 2237 486 
Q 2048 403 1837 403 
Q 1626 403 1437 486 
Q 1248 570 1107 726 
Q 966 883 886 1116 
Q 806 1350 806 1651 
z
M 230 1651 
Q 230 1286 332 972 
Q 435 659 640 425 
Q 845 192 1145 61 
Q 1446 -70 1837 -70 
Q 2234 -70 2531 61 
Q 2829 192 3033 425 
Q 3238 659 3340 972 
Q 3443 1286 3443 1651 
Q 3443 2016 3340 2333 
Q 3238 2650 3033 2883 
Q 2829 3117 2531 3251 
Q 2234 3386 1837 3386 
Q 1446 3386 1145 3251 
Q 845 3117 640 2883 
Q 435 2650 332 2333 
Q 230 2016 230 1651 
z
" transform="scale(0.015625)"/>
       <path id="HelveticaNeue-75" d="M 3149 0 
L 3149 3309 
L 2605 3309 
L 2605 1440 
Q 2605 1216 2544 1027 
Q 2483 838 2361 697 
Q 2240 557 2057 480 
Q 1875 403 1626 403 
Q 1312 403 1133 582 
Q 954 762 954 1069 
L 954 3309 
L 410 3309 
L 410 1133 
Q 410 864 464 643 
Q 518 422 652 262 
Q 787 102 1004 16 
Q 1222 -70 1549 -70 
Q 1914 -70 2182 74 
Q 2451 218 2624 525 
L 2637 525 
L 2637 0 
L 3149 0 
z
" transform="scale(0.015625)"/>
       <path id="HelveticaNeue-72" d="M 390 3309 
L 390 0 
L 934 0 
L 934 1472 
Q 934 1792 998 2038 
Q 1062 2285 1203 2457 
Q 1344 2630 1574 2720 
Q 1805 2810 2131 2810 
L 2131 3386 
Q 1690 3398 1402 3206 
Q 1114 3014 915 2611 
L 902 2611 
L 902 3309 
L 390 3309 
z
" transform="scale(0.015625)"/>
       <path id="HelveticaNeue-20" transform="scale(0.015625)"/>
       <path id="HelveticaNeue-66" d="M 634 2829 
L 634 0 
L 1178 0 
L 1178 2829 
L 1818 2829 
L 1818 3309 
L 1178 3309 
L 1178 3770 
Q 1178 3987 1286 4064 
Q 1395 4141 1594 4141 
Q 1664 4141 1747 4131 
Q 1830 4122 1901 4096 
L 1901 4570 
Q 1824 4595 1725 4608 
Q 1626 4621 1549 4621 
Q 1101 4621 867 4413 
Q 634 4205 634 3802 
L 634 3309 
L 77 3309 
L 77 2829 
L 634 2829 
z
" transform="scale(0.015625)"/>
       <path id="HelveticaNeue-44" d="M 1107 512 
L 1107 4058 
L 2131 4058 
Q 2554 4058 2842 3939 
Q 3130 3821 3312 3593 
Q 3494 3366 3574 3043 
Q 3654 2720 3654 2310 
Q 3654 1888 3568 1590 
Q 3482 1293 3347 1094 
Q 3213 896 3043 781 
Q 2874 666 2701 605 
Q 2528 544 2374 528 
Q 2221 512 2118 512 
L 1107 512 
z
M 499 4570 
L 499 0 
L 2067 0 
Q 2637 0 3053 160 
Q 3469 320 3737 624 
Q 4006 928 4134 1373 
Q 4262 1818 4262 2394 
Q 4262 3494 3692 4032 
Q 3123 4570 2067 4570 
L 499 4570 
z
" transform="scale(0.015625)"/>
       <path id="HelveticaNeue-61" d="M 3341 13 
Q 3200 -70 2950 -70 
Q 2739 -70 2614 48 
Q 2490 166 2490 435 
Q 2266 166 1968 48 
Q 1670 -70 1325 -70 
Q 1101 -70 899 -19 
Q 698 32 550 141 
Q 403 250 316 426 
Q 230 602 230 851 
Q 230 1133 326 1312 
Q 422 1491 579 1603 
Q 736 1715 937 1772 
Q 1139 1830 1350 1869 
Q 1574 1914 1776 1936 
Q 1978 1958 2131 2000 
Q 2285 2042 2374 2122 
Q 2464 2202 2464 2355 
Q 2464 2534 2397 2643 
Q 2330 2752 2224 2809 
Q 2118 2867 1987 2886 
Q 1856 2906 1728 2906 
Q 1382 2906 1152 2774 
Q 922 2643 902 2278 
L 358 2278 
Q 371 2586 486 2797 
Q 602 3008 794 3139 
Q 986 3270 1232 3328 
Q 1478 3386 1760 3386 
Q 1984 3386 2205 3354 
Q 2426 3322 2605 3222 
Q 2784 3123 2893 2944 
Q 3002 2765 3002 2477 
L 3002 774 
Q 3002 582 3024 492 
Q 3046 403 3174 403 
Q 3245 403 3341 435 
L 3341 13 
z
M 2458 1709 
Q 2355 1632 2188 1597 
Q 2022 1562 1840 1539 
Q 1658 1517 1472 1488 
Q 1286 1459 1139 1395 
Q 992 1331 899 1212 
Q 806 1094 806 890 
Q 806 755 860 662 
Q 915 570 1001 512 
Q 1088 454 1203 428 
Q 1318 403 1446 403 
Q 1715 403 1907 476 
Q 2099 550 2220 662 
Q 2342 774 2400 905 
Q 2458 1037 2458 1152 
L 2458 1709 
z
" transform="scale(0.015625)"/>
       <path id="HelveticaNeue-79" d="M 1709 -442 
Q 1613 -685 1520 -851 
Q 1427 -1018 1315 -1123 
Q 1203 -1229 1065 -1277 
Q 928 -1325 749 -1325 
Q 653 -1325 557 -1312 
Q 461 -1299 371 -1267 
L 371 -768 
Q 442 -800 534 -822 
Q 627 -845 691 -845 
Q 858 -845 970 -765 
Q 1082 -685 1139 -538 
L 1363 19 
L 51 3309 
L 666 3309 
L 1632 602 
L 1645 602 
L 2573 3309 
L 3149 3309 
L 1709 -442 
z
" transform="scale(0.015625)"/>
      </defs>
      <use xlink:href="#HelveticaNeue-48"/>
      <use xlink:href="#HelveticaNeue-6f" transform="translate(72.199982 0)"/>
      <use xlink:href="#HelveticaNeue-75" transform="translate(129.599976 0)"/>
      <use xlink:href="#HelveticaNeue-72" transform="translate(185.199966 0)"/>
      <use xlink:href="#HelveticaNeue-20" transform="translate(218.499954 0)"/>
      <use xlink:href="#HelveticaNeue-6f" transform="translate(246.299942 0)"/>
      <use xlink:href="#HelveticaNeue-66" transform="translate(303.699936 0)"/>
      <use xlink:href="#HelveticaNeue-20" transform="translate(333.299927 0)"/>
      <use xlink:href="#HelveticaNeue-44" transform="translate(361.099915 0)"/>
      <use xlink:href="#HelveticaNeue-61" transform="translate(431.499908 0)"/>
      <use xlink:href="#HelveticaNeue-79" transform="translate(485.199905 0)"/>
     </g>
    </g>
   </g>
   <g id="matplotlib.axis_2">
    <g id="ytick_1">
     <g id="line2d_7">
      <path d="M 56.814531 302.648778 
L 531.114531 302.648778 
" clip-path="url(#pce6119f6b6)" style="fill: none; stroke: #c4b892; stroke-opacity: 0.5; stroke-width: 0.5; stroke-linecap: square"/>
     </g>
     <g id="line2d_8">
      <defs>
       <path id="mf091fd5d08" d="M 0 0 
L -3.5 0 
" style="stroke: #6b6860; stroke-width: 0.8"/>
      </defs>
      <g>
       <use xlink:href="#mf091fd5d08" x="56.814531" y="302.648778" style="fill: #6b6860; stroke: #6b6860; stroke-width: 0.8"/>
      </g>
     </g>
     <g id="text_8">
      <!-- 64 -->
      <g style="fill: #2b2b2b" transform="translate(39.807656 305.862059) scale(0.09 -0.09)">
       <defs>
        <path id="HelveticaNeue-36" d="M 2650 3379 
L 3194 3379 
Q 3142 3942 2809 4240 
Q 2477 4538 1914 4538 
Q 1427 4538 1107 4333 
Q 787 4128 595 3789 
Q 403 3450 323 3011 
Q 243 2573 243 2106 
Q 243 1747 297 1363 
Q 352 979 518 659 
Q 685 339 992 134 
Q 1299 -70 1805 -70 
Q 2234 -70 2525 74 
Q 2816 218 2992 438 
Q 3168 659 3245 928 
Q 3322 1197 3322 1446 
Q 3322 1760 3226 2029 
Q 3130 2298 2954 2496 
Q 2778 2694 2518 2806 
Q 2259 2918 1933 2918 
Q 1562 2918 1277 2777 
Q 992 2637 800 2323 
L 787 2336 
Q 794 2598 838 2899 
Q 883 3200 1001 3459 
Q 1120 3718 1331 3888 
Q 1542 4058 1888 4058 
Q 2214 4058 2412 3872 
Q 2611 3686 2650 3379 
z
M 1830 2438 
Q 2061 2438 2233 2355 
Q 2406 2272 2521 2134 
Q 2637 1997 2691 1808 
Q 2746 1619 2746 1408 
Q 2746 1210 2685 1027 
Q 2624 845 2509 704 
Q 2394 563 2224 483 
Q 2054 403 1830 403 
Q 1606 403 1430 483 
Q 1254 563 1136 697 
Q 1018 832 954 1017 
Q 890 1203 890 1414 
Q 890 1626 950 1814 
Q 1011 2003 1132 2140 
Q 1254 2278 1427 2358 
Q 1600 2438 1830 2438 
z
" transform="scale(0.015625)"/>
        <path id="HelveticaNeue-34" d="M 2170 1542 
L 646 1542 
L 2157 3763 
L 2170 3763 
L 2170 1542 
z
M 2682 1542 
L 2682 4538 
L 2246 4538 
L 179 1587 
L 179 1062 
L 2170 1062 
L 2170 0 
L 2682 0 
L 2682 1062 
L 3296 1062 
L 3296 1542 
L 2682 1542 
z
" transform="scale(0.015625)"/>
       </defs>
       <use xlink:href="#HelveticaNeue-36"/>
       <use xlink:href="#HelveticaNeue-34" transform="translate(55.599991 0)"/>
      </g>
     </g>
    </g>
    <g id="ytick_2">
     <g id="line2d_9">
      <path d="M 56.814531 246.313028 
L 531.114531 246.313028 
" clip-path="url(#pce6119f6b6)" style="fill: none; stroke: #c4b892; stroke-opacity: 0.5; stroke-width: 0.5; stroke-linecap: square"/>
     </g>
     <g id="line2d_10">
      <g>
       <use xlink:href="#mf091fd5d08" x="56.814531" y="246.313028" style="fill: #6b6860; stroke: #6b6860; stroke-width: 0.8"/>
      </g>
     </g>
     <g id="text_9">
      <!-- 66 -->
      <g style="fill: #2b2b2b" transform="translate(39.807656 249.52631) scale(0.09 -0.09)">
       <use xlink:href="#HelveticaNeue-36"/>
       <use xlink:href="#HelveticaNeue-36" transform="translate(55.599991 0)"/>
      </g>
     </g>
    </g>
    <g id="ytick_3">
     <g id="line2d_11">
      <path d="M 56.814531 189.977279 
L 531.114531 189.977279 
" clip-path="url(#pce6119f6b6)" style="fill: none; stroke: #c4b892; stroke-opacity: 0.5; stroke-width: 0.5; stroke-linecap: square"/>
     </g>
     <g id="line2d_12">
      <g>
       <use xlink:href="#mf091fd5d08" x="56.814531" y="189.977279" style="fill: #6b6860; stroke: #6b6860; stroke-width: 0.8"/>
      </g>
     </g>
     <g id="text_10">
      <!-- 68 -->
      <g style="fill: #2b2b2b" transform="translate(39.807656 193.19056) scale(0.09 -0.09)">
       <defs>
        <path id="HelveticaNeue-38" d="M 992 3360 
Q 992 3533 1056 3661 
Q 1120 3789 1225 3878 
Q 1331 3968 1478 4013 
Q 1626 4058 1786 4058 
Q 2118 4058 2332 3882 
Q 2547 3706 2547 3360 
Q 2547 3014 2336 2822 
Q 2125 2630 1798 2630 
Q 1632 2630 1485 2675 
Q 1338 2720 1229 2809 
Q 1120 2899 1056 3036 
Q 992 3174 992 3360 
z
M 416 3379 
Q 416 3072 589 2813 
Q 762 2554 1050 2438 
Q 666 2304 461 2006 
Q 256 1709 256 1306 
Q 256 960 374 701 
Q 493 442 701 269 
Q 909 96 1190 13 
Q 1472 -70 1798 -70 
Q 2112 -70 2387 19 
Q 2662 109 2864 285 
Q 3066 461 3184 717 
Q 3302 973 3302 1306 
Q 3302 1728 3104 2019 
Q 2906 2310 2496 2438 
Q 2784 2566 2953 2819 
Q 3123 3072 3123 3379 
Q 3123 3597 3046 3805 
Q 2970 4013 2806 4176 
Q 2643 4339 2380 4438 
Q 2118 4538 1747 4538 
Q 1485 4538 1245 4461 
Q 1005 4384 819 4237 
Q 634 4090 525 3875 
Q 416 3661 416 3379 
z
M 832 1280 
Q 832 1478 905 1638 
Q 979 1798 1110 1913 
Q 1242 2029 1418 2089 
Q 1594 2150 1792 2150 
Q 1984 2150 2153 2083 
Q 2323 2016 2451 1901 
Q 2579 1786 2652 1629 
Q 2726 1472 2726 1286 
Q 2726 1094 2659 934 
Q 2592 774 2467 656 
Q 2342 538 2172 470 
Q 2003 403 1798 403 
Q 1376 403 1104 636 
Q 832 870 832 1280 
z
" transform="scale(0.015625)"/>
       </defs>
       <use xlink:href="#HelveticaNeue-36"/>
       <use xlink:href="#HelveticaNeue-38" transform="translate(55.599991 0)"/>
      </g>
     </g>
    </g>
    <g id="ytick_4">
     <g id="line2d_13">
      <path d="M 56.814531 133.64153 
L 531.114531 133.64153 
" clip-path="url(#pce6119f6b6)" style="fill: none; stroke: #c4b892; stroke-opacity: 0.5; stroke-width: 0.5; stroke-linecap: square"/>
     </g>
     <g id="line2d_14">
      <g>
       <use xlink:href="#mf091fd5d08" x="56.814531" y="133.64153" style="fill: #6b6860; stroke: #6b6860; stroke-width: 0.8"/>
      </g>
     </g>
     <g id="text_11">
      <!-- 70 -->
      <g style="fill: #2b2b2b" transform="translate(39.807656 136.854811) scale(0.09 -0.09)">
       <defs>
        <path id="HelveticaNeue-37" d="M 3258 3994 
L 3258 4461 
L 320 4461 
L 320 3949 
L 2701 3949 
Q 2342 3571 2032 3123 
Q 1722 2675 1485 2172 
Q 1248 1670 1097 1123 
Q 947 576 909 0 
L 1517 0 
Q 1549 531 1696 1094 
Q 1843 1658 2076 2189 
Q 2310 2720 2611 3187 
Q 2912 3654 3258 3994 
z
" transform="scale(0.015625)"/>
       </defs>
       <use xlink:href="#HelveticaNeue-37"/>
       <use xlink:href="#HelveticaNeue-30" transform="translate(55.599991 0)"/>
      </g>
     </g>
    </g>
    <g id="ytick_5">
     <g id="line2d_15">
      <path d="M 56.814531 77.30578 
L 531.114531 77.30578 
" clip-path="url(#pce6119f6b6)" style="fill: none; stroke: #c4b892; stroke-opacity: 0.5; stroke-width: 0.5; stroke-linecap: square"/>
     </g>
     <g id="line2d_16">
      <g>
       <use xlink:href="#mf091fd5d08" x="56.814531" y="77.30578" style="fill: #6b6860; stroke: #6b6860; stroke-width: 0.8"/>
      </g>
     </g>
     <g id="text_12">
      <!-- 72 -->
      <g style="fill: #2b2b2b" transform="translate(39.807656 80.519062) scale(0.09 -0.09)">
       <use xlink:href="#HelveticaNeue-37"/>
       <use xlink:href="#HelveticaNeue-32" transform="translate(55.599991 0)"/>
      </g>
     </g>
    </g>
    <g id="text_13">
     <!-- Temperature (°F) -->
     <g style="fill: #2b2b2b" transform="translate(29.640313 226.838359) rotate(-90) scale(0.11 -0.11)">
      <defs>
       <path id="HelveticaNeue-54" d="M 1536 4058 
L 1536 0 
L 2144 0 
L 2144 4058 
L 3667 4058 
L 3667 4570 
L 13 4570 
L 13 4058 
L 1536 4058 
z
" transform="scale(0.015625)"/>
       <path id="HelveticaNeue-65" d="M 2707 1971 
L 806 1971 
Q 819 2163 889 2332 
Q 960 2502 1081 2630 
Q 1203 2758 1372 2832 
Q 1542 2906 1754 2906 
Q 1958 2906 2128 2832 
Q 2298 2758 2422 2633 
Q 2547 2509 2620 2336 
Q 2694 2163 2707 1971 
z
M 3232 1050 
L 2694 1050 
Q 2624 723 2403 563 
Q 2182 403 1837 403 
Q 1568 403 1369 492 
Q 1171 582 1043 732 
Q 915 883 857 1078 
Q 800 1274 806 1491 
L 3283 1491 
Q 3296 1792 3229 2125 
Q 3162 2458 2986 2739 
Q 2810 3021 2518 3203 
Q 2227 3386 1786 3386 
Q 1446 3386 1161 3258 
Q 877 3130 669 2899 
Q 461 2669 345 2355 
Q 230 2042 230 1664 
Q 243 1286 342 966 
Q 442 646 640 416 
Q 838 186 1129 58 
Q 1421 -70 1818 -70 
Q 2381 -70 2752 211 
Q 3123 493 3232 1050 
z
" transform="scale(0.015625)"/>
       <path id="HelveticaNeue-6d" d="M 410 3309 
L 410 0 
L 954 0 
L 954 2061 
Q 954 2157 1002 2301 
Q 1050 2445 1155 2579 
Q 1261 2714 1430 2810 
Q 1600 2906 1837 2906 
Q 2022 2906 2140 2851 
Q 2259 2797 2329 2697 
Q 2400 2598 2429 2464 
Q 2458 2330 2458 2170 
L 2458 0 
L 3002 0 
L 3002 2061 
Q 3002 2445 3232 2675 
Q 3462 2906 3866 2906 
Q 4064 2906 4189 2848 
Q 4314 2790 4384 2691 
Q 4454 2592 4480 2457 
Q 4506 2323 4506 2170 
L 4506 0 
L 5050 0 
L 5050 2426 
Q 5050 2682 4970 2864 
Q 4890 3046 4746 3161 
Q 4602 3277 4400 3331 
Q 4198 3386 3949 3386 
Q 3622 3386 3350 3238 
Q 3078 3091 2912 2822 
Q 2810 3130 2560 3258 
Q 2310 3386 2003 3386 
Q 1306 3386 934 2822 
L 922 2822 
L 922 3309 
L 410 3309 
z
" transform="scale(0.015625)"/>
       <path id="HelveticaNeue-70" d="M 429 3309 
L 429 -1261 
L 973 -1261 
L 973 442 
L 986 442 
Q 1075 294 1206 195 
Q 1338 96 1485 38 
Q 1632 -19 1782 -44 
Q 1933 -70 2054 -70 
Q 2432 -70 2717 64 
Q 3002 198 3190 432 
Q 3379 666 3472 979 
Q 3565 1293 3565 1645 
Q 3565 1997 3469 2310 
Q 3373 2624 3184 2864 
Q 2995 3104 2710 3245 
Q 2426 3386 2042 3386 
Q 1696 3386 1408 3261 
Q 1120 3136 986 2861 
L 973 2861 
L 973 3309 
L 429 3309 
z
M 2989 1683 
Q 2989 1440 2937 1209 
Q 2886 979 2771 800 
Q 2656 621 2467 512 
Q 2278 403 1997 403 
Q 1715 403 1516 508 
Q 1318 614 1193 787 
Q 1069 960 1011 1187 
Q 954 1414 954 1658 
Q 954 1888 1008 2112 
Q 1062 2336 1184 2512 
Q 1306 2688 1498 2797 
Q 1690 2906 1965 2906 
Q 2227 2906 2422 2803 
Q 2618 2701 2742 2528 
Q 2867 2355 2928 2134 
Q 2989 1914 2989 1683 
z
" transform="scale(0.015625)"/>
       <path id="HelveticaNeue-74" d="M 1165 3309 
L 1165 4301 
L 621 4301 
L 621 3309 
L 58 3309 
L 58 2829 
L 621 2829 
L 621 723 
Q 621 493 665 352 
Q 710 211 803 134 
Q 896 58 1046 29 
Q 1197 0 1408 0 
L 1824 0 
L 1824 480 
L 1574 480 
Q 1446 480 1366 489 
Q 1286 499 1241 531 
Q 1197 563 1181 620 
Q 1165 678 1165 774 
L 1165 2829 
L 1824 2829 
L 1824 3309 
L 1165 3309 
z
" transform="scale(0.015625)"/>
       <path id="HelveticaNeue-28" d="M 1306 -1261 
L 1722 -1261 
Q 1267 -525 1072 198 
Q 877 922 877 1728 
Q 877 2515 1069 3232 
Q 1261 3949 1722 4678 
L 1306 4678 
Q 806 4019 553 3251 
Q 301 2483 301 1728 
Q 301 1306 371 922 
Q 442 538 573 173 
Q 704 -192 889 -547 
Q 1075 -902 1306 -1261 
z
" transform="scale(0.015625)"/>
       <path id="HelveticaNeue-b0" d="M 678 3616 
Q 678 3731 720 3836 
Q 762 3942 838 4028 
Q 915 4115 1027 4166 
Q 1139 4218 1280 4218 
Q 1421 4218 1533 4166 
Q 1645 4115 1721 4028 
Q 1798 3942 1840 3836 
Q 1882 3731 1882 3616 
Q 1882 3501 1840 3395 
Q 1798 3290 1721 3203 
Q 1645 3117 1533 3065 
Q 1421 3014 1280 3014 
Q 1139 3014 1027 3065 
Q 915 3117 838 3203 
Q 762 3290 720 3395 
Q 678 3501 678 3616 
z
M 358 3616 
Q 358 3424 428 3254 
Q 499 3085 624 2960 
Q 749 2835 918 2764 
Q 1088 2694 1280 2694 
Q 1472 2694 1638 2764 
Q 1805 2835 1929 2960 
Q 2054 3085 2128 3254 
Q 2202 3424 2202 3616 
Q 2202 3808 2128 3974 
Q 2054 4141 1929 4265 
Q 1805 4390 1638 4464 
Q 1472 4538 1280 4538 
Q 1088 4538 918 4464 
Q 749 4390 624 4265 
Q 499 4141 428 3974 
Q 358 3808 358 3616 
z
" transform="scale(0.015625)"/>
       <path id="HelveticaNeue-46" d="M 499 4570 
L 499 0 
L 1107 0 
L 1107 2093 
L 3206 2093 
L 3206 2605 
L 1107 2605 
L 1107 4058 
L 3501 4058 
L 3501 4570 
L 499 4570 
z
" transform="scale(0.015625)"/>
       <path id="HelveticaNeue-29" d="M -58 -1261 
L 352 -1261 
Q 851 -602 1104 163 
Q 1357 928 1357 1683 
Q 1357 2106 1286 2490 
Q 1216 2874 1085 3242 
Q 954 3610 768 3965 
Q 582 4320 352 4678 
L -58 4678 
Q 390 3942 585 3216 
Q 781 2490 781 1683 
Q 781 902 589 182 
Q 397 -538 -58 -1261 
z
" transform="scale(0.015625)"/>
      </defs>
      <use xlink:href="#HelveticaNeue-54"/>
      <use xlink:href="#HelveticaNeue-65" transform="translate(46.274994 0)"/>
      <use xlink:href="#HelveticaNeue-6d" transform="translate(99.974991 0)"/>
      <use xlink:href="#HelveticaNeue-70" transform="translate(185.274979 0)"/>
      <use xlink:href="#HelveticaNeue-65" transform="translate(244.574966 0)"/>
      <use xlink:href="#HelveticaNeue-72" transform="translate(298.274963 0)"/>
      <use xlink:href="#HelveticaNeue-61" transform="translate(331.574951 0)"/>
      <use xlink:href="#HelveticaNeue-74" transform="translate(385.274948 0)"/>
      <use xlink:href="#HelveticaNeue-75" transform="translate(416.774933 0)"/>
      <use xlink:href="#HelveticaNeue-72" transform="translate(472.374924 0)"/>
      <use xlink:href="#HelveticaNeue-65" transform="translate(503.924911 0)"/>
      <use xlink:href="#HelveticaNeue-20" transform="translate(557.624908 0)"/>
      <use xlink:href="#HelveticaNeue-28" transform="translate(585.424896 0)"/>
      <use xlink:href="#HelveticaNeue-b0" transform="translate(611.32489 0)"/>
      <use xlink:href="#HelveticaNeue-46" transform="translate(651.324875 0)"/>
      <use xlink:href="#HelveticaNeue-29" transform="translate(708.724869 0)"/>
     </g>
    </g>
   </g>
   <g id="line2d_17">
    <path d="M 78.373622 189.966884 
L 80.540365 183.895895 
L 82.707108 185.183637 
L 84.873851 186.846654 
L 87.040593 179.627343 
L 89.207336 180.64351 
L 91.374079 168.251686 
L 93.540822 153.951951 
L 95.707565 165.978535 
L 97.874307 163.632473 
L 100.04105 150.851404 
L 102.207793 148.61131 
L 104.374536 147.410961 
L 106.541279 152.8807 
L 108.708021 142.026072 
L 110.874764 132.712339 
L 113.041507 146.80725 
L 115.20825 136.229771 
L 117.374993 145.400806 
L 119.541735 137.26433 
L 121.708478 139.026488 
L 123.875221 122.611958 
L 126.041964 128.567061 
L 128.208707 112.867613 
L 130.375449 111.213088 
L 132.542192 111.572315 
L 134.708935 128.794933 
L 136.875678 109.696459 
L 139.042421 103.255631 
L 141.209164 99.676604 
L 143.375906 111.441693 
L 145.542649 100.51724 
L 147.709392 102.810653 
L 149.876135 99.533672 
L 152.042878 81.987588 
L 154.20962 96.129098 
L 156.376363 88.032882 
L 158.543106 78.839465 
L 160.709849 89.902668 
L 162.876592 84.677781 
L 165.043334 81.669129 
L 167.210077 81.039376 
L 169.37682 91.01434 
L 173.710306 67.674971 
L 175.877048 91.644481 
L 178.043791 70.832532 
L 182.377277 82.898388 
L 184.54402 60.433125 
L 186.710762 70.86792 
L 188.877505 87.527947 
L 191.044248 76.960289 
L 193.210991 73.025229 
L 195.377734 79.913951 
L 197.544476 73.079348 
L 199.711219 80.054569 
L 204.044705 68.950661 
L 206.211448 87.786618 
L 208.37819 81.438319 
L 210.544933 88.2544 
L 212.711676 84.55349 
L 214.878419 97.054866 
L 217.045162 93.414265 
L 219.211904 91.774335 
L 221.378647 84.218522 
L 223.54539 83.930708 
L 225.712133 106.683448 
L 227.878876 104.199262 
L 230.045619 94.094964 
L 232.212361 118.565616 
L 234.379104 107.898282 
L 236.545847 107.147541 
L 238.71259 98.127687 
L 240.879333 105.429664 
L 243.046075 116.604378 
L 245.212818 119.61373 
L 247.379561 121.346442 
L 249.546304 109.161414 
L 251.713047 128.524071 
L 253.879789 130.409493 
L 256.046532 127.861894 
L 258.213275 134.919017 
L 260.380018 138.67855 
L 262.546761 149.591459 
L 264.713503 143.489951 
L 266.880246 150.402853 
L 269.046989 140.105253 
L 271.213732 147.785536 
L 273.380475 156.889865 
L 275.547217 154.452438 
L 277.71396 166.41696 
L 279.880703 158.124878 
L 282.047446 170.555032 
L 284.214189 169.092693 
L 286.380931 188.459988 
L 288.547674 178.163273 
L 290.714417 198.90901 
L 292.88116 205.397887 
L 295.047903 194.328879 
L 297.214645 202.916199 
L 299.381388 197.475408 
L 301.548131 183.434079 
L 303.714874 212.960435 
L 305.881617 214.717704 
L 308.048359 211.203093 
L 310.215102 212.243478 
L 312.381845 221.344753 
L 314.548588 225.008901 
L 316.715331 220.714121 
L 318.882074 225.601695 
L 321.048816 242.035063 
L 323.215559 237.231078 
L 325.382302 239.479184 
L 327.549045 251.853909 
L 329.715788 243.860361 
L 331.88253 256.363202 
L 334.049273 243.896958 
L 336.216016 253.41868 
L 338.382759 257.164096 
L 340.549502 265.716762 
L 342.716244 264.457724 
L 344.882987 282.996933 
L 347.04973 278.259985 
L 349.216473 268.138511 
L 351.383216 291.61629 
L 353.549958 268.81608 
L 355.716701 292.98076 
L 357.883444 273.998312 
L 360.050187 289.615069 
L 362.21693 277.872643 
L 364.383672 285.239724 
L 366.550415 301.127968 
L 368.717158 279.28239 
L 370.883901 279.252653 
L 373.050644 293.487992 
L 375.217386 296.640296 
L 377.384129 296.96621 
L 379.550872 305.040035 
L 381.717615 288.594075 
L 383.884358 303.435493 
L 386.0511 300.142241 
L 388.217843 307.165727 
L 390.384586 306.394916 
L 392.551329 312.433125 
L 394.718072 291.433402 
L 396.884814 303.666676 
L 399.051557 294.398649 
L 401.2183 302.53267 
L 403.385043 308.48515 
L 405.551786 305.237436 
L 407.718529 306.95848 
L 409.885271 301.792674 
L 412.052014 304.555151 
L 414.218757 303.331484 
L 416.3855 311.749052 
L 418.552243 306.110524 
L 420.718985 284.398817 
L 422.885728 303.024132 
L 425.052471 305.128174 
L 427.219214 292.132995 
L 429.385957 281.749718 
L 431.552699 304.483529 
L 433.719442 292.411506 
L 435.886185 294.343065 
L 438.052928 302.137107 
L 440.219671 279.202349 
L 442.386413 283.672616 
L 444.553156 280.839357 
L 446.719899 285.677757 
L 448.886642 273.265687 
L 451.053385 279.367507 
L 453.220127 273.634741 
L 455.38687 279.327083 
L 457.553613 277.693376 
L 459.720356 253.508935 
L 461.887099 266.383098 
L 464.053841 256.8644 
L 466.220584 256.77694 
L 468.387327 257.315127 
L 470.55407 254.912228 
L 472.720813 242.26738 
L 474.887555 247.057299 
L 479.221041 237.987895 
L 481.387784 224.994728 
L 483.554527 225.902244 
L 485.721269 225.094313 
L 487.888012 229.726194 
L 490.054755 233.243459 
L 492.221498 210.111475 
L 494.388241 206.510474 
L 496.554984 212.383674 
L 498.721726 203.111706 
L 500.888469 197.565871 
L 503.055212 193.609918 
L 505.221955 189.301461 
L 507.388698 197.384289 
L 509.55544 177.175208 
L 509.55544 177.175208 
" clip-path="url(#pce6119f6b6)" style="fill: none; stroke: #2e4d37; stroke-width: 2; stroke-linecap: square"/>
   </g>
   <g id="patch_3">
    <path d="M 56.814531 325.033125 
L 56.814531 47.833125 
" style="fill: none; stroke: #c4b892; stroke-width: 0.8; stroke-linejoin: miter; stroke-linecap: square"/>
   </g>
   <g id="patch_4">
    <path d="M 56.814531 325.033125 
L 531.114531 325.033125 
" style="fill: none; stroke: #c4b892; stroke-width: 0.8; stroke-linejoin: miter; stroke-linecap: square"/>
   </g>
   <g id="text_14">
    <!-- Temperature Control System -->
    <g style="fill: #2b2b2b" transform="translate(204.618281 31.833125) scale(0.14 -0.14)">
     <defs>
      <path id="HelveticaNeue-43" d="M 3712 3194 
L 4320 3194 
Q 4269 3558 4102 3836 
Q 3936 4115 3686 4300 
Q 3437 4486 3117 4582 
Q 2797 4678 2438 4678 
Q 1914 4678 1507 4489 
Q 1101 4301 829 3974 
Q 557 3648 416 3209 
Q 275 2771 275 2272 
Q 275 1773 406 1337 
Q 538 902 800 582 
Q 1062 262 1459 80 
Q 1856 -102 2387 -102 
Q 3264 -102 3769 378 
Q 4275 858 4365 1722 
L 3757 1722 
Q 3738 1440 3642 1197 
Q 3546 954 3376 778 
Q 3206 602 2972 502 
Q 2739 403 2438 403 
Q 2029 403 1734 556 
Q 1440 710 1251 969 
Q 1062 1229 972 1577 
Q 883 1926 883 2317 
Q 883 2675 972 3008 
Q 1062 3341 1251 3600 
Q 1440 3859 1731 4012 
Q 2022 4166 2432 4166 
Q 2912 4166 3261 3923 
Q 3610 3680 3712 3194 
z
" transform="scale(0.015625)"/>
      <path id="HelveticaNeue-6e" d="M 410 3309 
L 410 0 
L 954 0 
L 954 1869 
Q 954 2093 1014 2281 
Q 1075 2470 1196 2611 
Q 1318 2752 1500 2829 
Q 1683 2906 1933 2906 
Q 2246 2906 2425 2726 
Q 2605 2547 2605 2240 
L 2605 0 
L 3149 0 
L 3149 2176 
Q 3149 2445 3094 2665 
Q 3040 2886 2905 3046 
Q 2771 3206 2553 3296 
Q 2336 3386 2010 3386 
Q 1274 3386 934 2784 
L 922 2784 
L 922 3309 
L 410 3309 
z
" transform="scale(0.015625)"/>
      <path id="HelveticaNeue-6c" d="M 442 4570 
L 442 0 
L 986 0 
L 986 4570 
L 442 4570 
z
" transform="scale(0.015625)"/>
      <path id="HelveticaNeue-53" d="M 3142 3232 
L 3718 3232 
Q 3706 3610 3574 3882 
Q 3443 4154 3216 4333 
Q 2989 4512 2688 4595 
Q 2387 4678 2035 4678 
Q 1722 4678 1424 4598 
Q 1126 4518 892 4355 
Q 659 4192 518 3939 
Q 378 3686 378 3341 
Q 378 3027 502 2819 
Q 627 2611 835 2480 
Q 1043 2349 1305 2269 
Q 1568 2189 1840 2128 
Q 2112 2067 2374 2009 
Q 2637 1952 2845 1859 
Q 3053 1766 3177 1619 
Q 3302 1472 3302 1235 
Q 3302 986 3200 826 
Q 3098 666 2931 573 
Q 2765 480 2557 441 
Q 2349 403 2144 403 
Q 1888 403 1645 467 
Q 1402 531 1219 665 
Q 1037 800 925 1008 
Q 813 1216 813 1504 
L 237 1504 
Q 237 1088 387 784 
Q 538 480 797 285 
Q 1056 90 1398 -6 
Q 1741 -102 2125 -102 
Q 2438 -102 2755 -28 
Q 3072 45 3328 208 
Q 3584 371 3747 630 
Q 3910 890 3910 1254 
Q 3910 1594 3785 1818 
Q 3661 2042 3453 2189 
Q 3245 2336 2982 2422 
Q 2720 2509 2448 2573 
Q 2176 2637 1913 2691 
Q 1651 2746 1443 2829 
Q 1235 2912 1110 3043 
Q 986 3174 986 3386 
Q 986 3610 1072 3760 
Q 1158 3910 1302 4000 
Q 1446 4090 1632 4128 
Q 1818 4166 2010 4166 
Q 2483 4166 2787 3945 
Q 3091 3725 3142 3232 
z
" transform="scale(0.015625)"/>
      <path id="HelveticaNeue-73" d="M 742 1043 
L 198 1043 
Q 211 736 326 521 
Q 442 307 634 176 
Q 826 45 1075 -12 
Q 1325 -70 1600 -70 
Q 1850 -70 2102 -22 
Q 2355 26 2556 147 
Q 2758 269 2883 467 
Q 3008 666 3008 966 
Q 3008 1203 2915 1363 
Q 2822 1523 2672 1628 
Q 2522 1734 2326 1798 
Q 2131 1862 1926 1907 
Q 1734 1952 1542 1993 
Q 1350 2035 1196 2096 
Q 1043 2157 944 2249 
Q 845 2342 845 2483 
Q 845 2611 909 2691 
Q 973 2771 1075 2819 
Q 1178 2867 1302 2886 
Q 1427 2906 1549 2906 
Q 1683 2906 1814 2877 
Q 1946 2848 2054 2784 
Q 2163 2720 2233 2614 
Q 2304 2509 2317 2349 
L 2861 2349 
Q 2842 2650 2733 2851 
Q 2624 3053 2441 3171 
Q 2259 3290 2022 3338 
Q 1786 3386 1504 3386 
Q 1286 3386 1065 3331 
Q 845 3277 669 3165 
Q 493 3053 381 2873 
Q 269 2694 269 2445 
Q 269 2125 429 1945 
Q 589 1766 829 1667 
Q 1069 1568 1350 1513 
Q 1632 1459 1872 1392 
Q 2112 1325 2272 1216 
Q 2432 1107 2432 896 
Q 2432 742 2355 643 
Q 2278 544 2160 493 
Q 2042 442 1901 422 
Q 1760 403 1632 403 
Q 1466 403 1309 435 
Q 1152 467 1027 540 
Q 902 614 825 739 
Q 749 864 742 1043 
z
" transform="scale(0.015625)"/>
     </defs>
     <use xlink:href="#HelveticaNeue-54"/>
     <use xlink:href="#HelveticaNeue-65" transform="translate(46.274994 0)"/>
     <use xlink:href="#HelveticaNeue-6d" transform="translate(99.974991 0)"/>
     <use xlink:href="#HelveticaNeue-70" transform="translate(185.274979 0)"/>
     <use xlink:href="#HelveticaNeue-65" transform="translate(244.574966 0)"/>
     <use xlink:href="#HelveticaNeue-72" transform="translate(298.274963 0)"/>
     <use xlink:href="#HelveticaNeue-61" transform="translate(331.574951 0)"/>
     <use xlink:href="#HelveticaNeue-74" transform="translate(385.274948 0)"/>
     <use xlink:href="#HelveticaNeue-75" transform="translate(416.774933 0)"/>
     <use xlink:href="#HelveticaNeue-72" transform="translate(472.374924 0)"/>
     <use xlink:href="#HelveticaNeue-65" transform="translate(503.924911 0)"/>
     <use xlink:href="#HelveticaNeue-20" transform="translate(557.624908 0)"/>
     <use xlink:href="#HelveticaNeue-43" transform="translate(585.424896 0)"/>
     <use xlink:href="#HelveticaNeue-6f" transform="translate(657.624878 0)"/>
     <use xlink:href="#HelveticaNeue-6e" transform="translate(715.024872 0)"/>
     <use xlink:href="#HelveticaNeue-74" transform="translate(770.624863 0)"/>
     <use xlink:href="#HelveticaNeue-72" transform="translate(802.124847 0)"/>
     <use xlink:href="#HelveticaNeue-6f" transform="translate(833.674835 0)"/>
     <use xlink:href="#HelveticaNeue-6c" transform="translate(891.074829 0)"/>
     <use xlink:href="#HelveticaNeue-20" transform="translate(913.274826 0)"/>
     <use xlink:href="#HelveticaNeue-53" transform="translate(941.074814 0)"/>
     <use xlink:href="#HelveticaNeue-79" transform="translate(1005.874802 0)"/>
     <use xlink:href="#HelveticaNeue-73" transform="translate(1055.874786 0)"/>
     <use xlink:href="#HelveticaNeue-74" transform="translate(1105.874771 0)"/>
     <use xlink:href="#HelveticaNeue-65" transform="translate(1137.374756 0)"/>
     <use xlink:href="#HelveticaNeue-6d" transform="translate(1191.074753 0)"/>
    </g>
   </g>
   <g id="legend_1">
    <g id="patch_5">
     <path d="M 429.896875 80.736562 
L 524.814531 80.736562 
Q 526.614531 80.736562 526.614531 78.936562 
L 526.614531 54.133125 
Q 526.614531 52.333125 524.814531 52.333125 
L 429.896875 52.333125 
Q 428.096875 52.333125 428.096875 54.133125 
L 428.096875 78.936562 
Q 428.096875 80.736562 429.896875 80.736562 
z
" style="fill: #e4dab9; opacity: 0.9; stroke: #c4b892; stroke-linejoin: miter"/>
    </g>
    <g id="line2d_18">
     <path d="M 431.696875 59.361562 
L 440.696875 59.361562 
L 449.696875 59.361562 
" style="fill: none; stroke: #2e4d37; stroke-width: 2; stroke-linecap: square"/>
    </g>
    <g id="text_15">
     <!-- Temperature (°F) -->
     <g transform="translate(456.896875 62.511562) scale(0.09 -0.09)">
      <use xlink:href="#HelveticaNeue-54"/>
      <use xlink:href="#HelveticaNeue-65" transform="translate(46.274994 0)"/>
      <use xlink:href="#HelveticaNeue-6d" transform="translate(99.974991 0)"/>
      <use xlink:href="#HelveticaNeue-70" transform="translate(185.274979 0)"/>
      <use xlink:href="#HelveticaNeue-65" transform="translate(244.574966 0)"/>
      <use xlink:href="#HelveticaNeue-72" transform="translate(298.274963 0)"/>
      <use xlink:href="#HelveticaNeue-61" transform="translate(331.574951 0)"/>
      <use xlink:href="#HelveticaNeue-74" transform="translate(385.274948 0)"/>
      <use xlink:href="#HelveticaNeue-75" transform="translate(416.774933 0)"/>
      <use xlink:href="#HelveticaNeue-72" transform="translate(472.374924 0)"/>
      <use xlink:href="#HelveticaNeue-65" transform="translate(503.924911 0)"/>
      <use xlink:href="#HelveticaNeue-20" transform="translate(557.624908 0)"/>
      <use xlink:href="#HelveticaNeue-28" transform="translate(585.424896 0)"/>
      <use xlink:href="#HelveticaNeue-b0" transform="translate(611.32489 0)"/>
      <use xlink:href="#HelveticaNeue-46" transform="translate(651.324875 0)"/>
      <use xlink:href="#HelveticaNeue-29" transform="translate(708.724869 0)"/>
     </g>
    </g>
    <g id="line2d_19">
     <path d="M 431.696875 72.213281 
L 440.696875 72.213281 
L 449.696875 72.213281 
" style="fill: none; stroke-dasharray: 7.4,3.2; stroke-dashoffset: 0; stroke: #a0522d; stroke-width: 2"/>
    </g>
    <g id="text_16">
     <!-- Heater Output -->
     <g transform="translate(456.896875 75.363281) scale(0.09 -0.09)">
      <defs>
       <path id="HelveticaNeue-4f" d="M 851 2285 
Q 851 2630 940 2966 
Q 1030 3302 1222 3571 
Q 1414 3840 1715 4003 
Q 2016 4166 2432 4166 
Q 2848 4166 3149 4003 
Q 3450 3840 3642 3571 
Q 3834 3302 3923 2966 
Q 4013 2630 4013 2285 
Q 4013 1939 3923 1603 
Q 3834 1267 3642 998 
Q 3450 730 3149 566 
Q 2848 403 2432 403 
Q 2016 403 1715 566 
Q 1414 730 1222 998 
Q 1030 1267 940 1603 
Q 851 1939 851 2285 
z
M 243 2285 
Q 243 1818 380 1386 
Q 518 954 793 621 
Q 1069 288 1478 93 
Q 1888 -102 2432 -102 
Q 2976 -102 3385 93 
Q 3795 288 4070 621 
Q 4346 954 4483 1386 
Q 4621 1818 4621 2285 
Q 4621 2752 4483 3184 
Q 4346 3616 4070 3949 
Q 3795 4282 3385 4480 
Q 2976 4678 2432 4678 
Q 1888 4678 1478 4480 
Q 1069 4282 793 3949 
Q 518 3616 380 3184 
Q 243 2752 243 2285 
z
" transform="scale(0.015625)"/>
      </defs>
      <use xlink:href="#HelveticaNeue-48"/>
      <use xlink:href="#HelveticaNeue-65" transform="translate(72.199982 0)"/>
      <use xlink:href="#HelveticaNeue-61" transform="translate(125.899979 0)"/>
      <use xlink:href="#HelveticaNeue-74" transform="translate(179.599976 0)"/>
      <use xlink:href="#HelveticaNeue-65" transform="translate(211.09996 0)"/>
      <use xlink:href="#HelveticaNeue-72" transform="translate(264.799957 0)"/>
      <use xlink:href="#HelveticaNeue-20" transform="translate(298.099945 0)"/>
      <use xlink:href="#HelveticaNeue-4f" transform="translate(325.899933 0)"/>
      <use xlink:href="#HelveticaNeue-75" transform="translate(401.899918 0)"/>
      <use xlink:href="#HelveticaNeue-74" transform="translate(457.499908 0)"/>
      <use xlink:href="#HelveticaNeue-70" transform="translate(488.999893 0)"/>
      <use xlink:href="#HelveticaNeue-75" transform="translate(548.299881 0)"/>
      <use xlink:href="#HelveticaNeue-74" transform="translate(603.899872 0)"/>
     </g>
    </g>
   </g>
  </g>
  <g id="axes_2">
   <g id="matplotlib.axis_3">
    <g id="ytick_6">
     <g id="line2d_20">
      <path d="M 56.814531 312.433125 
L 531.114531 312.433125 
" clip-path="url(#pce6119f6b6)" style="fill: none; stroke: #c4b892; stroke-opacity: 0.5; stroke-width: 0.5; stroke-linecap: square"/>
     </g>
     <g id="line2d_21">
      <defs>
       <path id="m8faaf6c4d7" d="M 0 0 
L 3.5 0 
" style="stroke: #6b6860; stroke-width: 0.8"/>
      </defs>
      <g>
       <use xlink:href="#m8faaf6c4d7" x="531.114531" y="312.433125" style="fill: #6b6860; stroke: #6b6860; stroke-width: 0.8"/>
      </g>
     </g>
     <g id="text_17">
      <!-- 0.0 -->
      <g style="fill: #2b2b2b" transform="translate(538.114531 315.646406) scale(0.09 -0.09)">
       <defs>
        <path id="HelveticaNeue-2e" d="M 531 710 
L 531 0 
L 1242 0 
L 1242 710 
L 531 710 
z
" transform="scale(0.015625)"/>
       </defs>
       <use xlink:href="#HelveticaNeue-30"/>
       <use xlink:href="#HelveticaNeue-2e" transform="translate(55.599991 0)"/>
       <use xlink:href="#HelveticaNeue-30" transform="translate(83.399979 0)"/>
      </g>
     </g>
    </g>
    <g id="ytick_7">
     <g id="line2d_22">
      <path d="M 56.814531 252.054742 
L 531.114531 252.054742 
" clip-path="url(#pce6119f6b6)" style="fill: none; stroke: #c4b892; stroke-opacity: 0.5; stroke-width: 0.5; stroke-linecap: square"/>
     </g>
     <g id="line2d_23">
      <g>
       <use xlink:href="#m8faaf6c4d7" x="531.114531" y="252.054742" style="fill: #6b6860; stroke: #6b6860; stroke-width: 0.8"/>
      </g>
     </g>
     <g id="text_18">
      <!-- 0.5 -->
      <g style="fill: #2b2b2b" transform="translate(538.114531 255.268023) scale(0.09 -0.09)">
       <use xlink:href="#HelveticaNeue-30"/>
       <use xlink:href="#HelveticaNeue-2e" transform="translate(55.599991 0)"/>
       <use xlink:href="#HelveticaNeue-35" transform="translate(83.399979 0)"/>
      </g>
     </g>
    </g>
    <g id="ytick_8">
     <g id="line2d_24">
      <path d="M 56.814531 191.676359 
L 531.114531 191.676359 
" clip-path="url(#pce6119f6b6)" style="fill: none; stroke: #c4b892; stroke-opacity: 0.5; stroke-width: 0.5; stroke-linecap: square"/>
     </g>
     <g id="line2d_25">
      <g>
       <use xlink:href="#m8faaf6c4d7" x="531.114531" y="191.676359" style="fill: #6b6860; stroke: #6b6860; stroke-width: 0.8"/>
      </g>
     </g>
     <g id="text_19">
      <!-- 1.0 -->
      <g style="fill: #2b2b2b" transform="translate(538.114531 194.88964) scale(0.09 -0.09)">
       <use xlink:href="#HelveticaNeue-31"/>
       <use xlink:href="#HelveticaNeue-2e" transform="translate(55.599991 0)"/>
       <use xlink:href="#HelveticaNeue-30" transform="translate(83.399979 0)"/>
      </g>
     </g>
    </g>
    <g id="ytick_9">
     <g id="line2d_26">
      <path d="M 56.814531 131.297976 
L 531.114531 131.297976 
" clip-path="url(#pce6119f6b6)" style="fill: none; stroke: #c4b892; stroke-opacity: 0.5; stroke-width: 0.5; stroke-linecap: square"/>
     </g>
     <g id="line2d_27">
      <g>
       <use xlink:href="#m8faaf6c4d7" x="531.114531" y="131.297976" style="fill: #6b6860; stroke: #6b6860; stroke-width: 0.8"/>
      </g>
     </g>
     <g id="text_20">
      <!-- 1.5 -->
      <g style="fill: #2b2b2b" transform="translate(538.114531 134.511258) scale(0.09 -0.09)">
       <use xlink:href="#HelveticaNeue-31"/>
       <use xlink:href="#HelveticaNeue-2e" transform="translate(55.599991 0)"/>
       <use xlink:href="#HelveticaNeue-35" transform="translate(83.399979 0)"/>
      </g>
     </g>
    </g>
    <g id="ytick_10">
     <g id="line2d_28">
      <path d="M 56.814531 70.919593 
L 531.114531 70.919593 
" clip-path="url(#pce6119f6b6)" style="fill: none; stroke: #c4b892; stroke-opacity: 0.5; stroke-width: 0.5; stroke-linecap: square"/>
     </g>
     <g id="line2d_29">
      <g>
       <use xlink:href="#m8faaf6c4d7" x="531.114531" y="70.919593" style="fill: #6b6860; stroke: #6b6860; stroke-width: 0.8"/>
      </g>
     </g>
     <g id="text_21">
      <!-- 2.0 -->
      <g style="fill: #2b2b2b" transform="translate(538.114531 74.132875) scale(0.09 -0.09)">
       <use xlink:href="#HelveticaNeue-32"/>
       <use xlink:href="#HelveticaNeue-2e" transform="translate(55.599991 0)"/>
       <use xlink:href="#HelveticaNeue-30" transform="translate(83.399979 0)"/>
      </g>
     </g>
    </g>
    <g id="text_22">
     <!-- Heater Output (0–1) -->
     <g style="fill: #2b2b2b" transform="translate(566.663438 234.623438) rotate(-90) scale(0.11 -0.11)">
      <defs>
       <path id="HelveticaNeue-2013" d="M 0 2035 
L 0 1523 
L 3200 1523 
L 3200 2035 
L 0 2035 
z
" transform="scale(0.015625)"/>
      </defs>
      <use xlink:href="#HelveticaNeue-48"/>
      <use xlink:href="#HelveticaNeue-65" transform="translate(72.199982 0)"/>
      <use xlink:href="#HelveticaNeue-61" transform="translate(125.899979 0)"/>
      <use xlink:href="#HelveticaNeue-74" transform="translate(179.599976 0)"/>
      <use xlink:href="#HelveticaNeue-65" transform="translate(211.09996 0)"/>
      <use xlink:href="#HelveticaNeue-72" transform="translate(264.799957 0)"/>
      <use xlink:href="#HelveticaNeue-20" transform="translate(298.099945 0)"/>
      <use xlink:href="#HelveticaNeue-4f" transform="translate(325.899933 0)"/>
      <use xlink:href="#HelveticaNeue-75" transform="translate(401.899918 0)"/>
      <use xlink:href="#HelveticaNeue-74" transform="translate(457.499908 0)"/>
      <use xlink:href="#HelveticaNeue-70" transform="translate(488.999893 0)"/>
      <use xlink:href="#HelveticaNeue-75" transform="translate(548.299881 0)"/>
      <use xlink:href="#HelveticaNeue-74" transform="translate(603.899872 0)"/>
      <use xlink:href="#HelveticaNeue-20" transform="translate(635.399857 0)"/>
      <use xlink:href="#HelveticaNeue-28" transform="translate(663.199844 0)"/>
      <use xlink:href="#HelveticaNeue-30" transform="translate(689.099838 0)"/>
      <use xlink:href="#HelveticaNeue-2013" transform="translate(744.699829 0)"/>
      <use xlink:href="#HelveticaNeue-31" transform="translate(794.699814 0)"/>
      <use xlink:href="#HelveticaNeue-29" transform="translate(850.299805 0)"/>
     </g>
    </g>
   </g>
   <g id="line2d_30">
    <path d="M 78.373622 191.6875 
L 80.540365 198.194141 
L 82.707108 196.813991 
L 84.873851 195.031637 
L 87.040593 202.769003 
L 89.207336 201.679916 
L 91.374079 214.960973 
L 93.540822 230.286852 
L 95.707565 217.397245 
L 97.874307 219.911659 
L 100.04105 233.609893 
L 102.207793 236.010736 
L 104.374536 237.297221 
L 106.541279 231.434975 
L 108.708021 243.068529 
L 110.874764 253.050611 
L 113.041507 237.944255 
L 115.20825 249.28077 
L 117.374993 239.451624 
L 119.541735 248.171972 
L 121.708478 246.283361 
L 123.875221 263.875792 
L 126.041964 257.493354 
L 128.208707 274.319388 
L 130.375449 276.092641 
L 132.542192 275.707636 
L 134.708935 257.249129 
L 136.875678 277.718102 
L 139.042421 284.621122 
L 141.209164 288.456979 
L 143.375906 275.847631 
L 145.542649 287.556019 
L 147.709392 285.098032 
L 149.876135 288.610168 
L 152.042878 307.415352 
L 154.20962 292.259052 
L 156.376363 300.93625 
L 158.543106 310.789384 
L 160.709849 298.932289 
L 162.876592 304.532112 
L 165.043334 307.756665 
L 167.210077 308.431608 
L 169.37682 297.740844 
L 171.543563 310.390599 
L 173.710306 312.433125 
L 175.877048 297.065484 
L 178.043791 312.433125 
L 180.210534 312.433125 
L 182.377277 306.439194 
L 184.54402 312.433125 
L 186.710762 312.433125 
L 188.877505 301.477419 
L 191.044248 312.433125 
L 193.210991 312.433125 
L 195.377734 309.637793 
L 197.544476 312.433125 
L 199.711219 309.487084 
L 201.877962 312.433125 
L 204.044705 312.433125 
L 206.211448 301.200186 
L 208.37819 308.004037 
L 210.544933 300.698837 
L 212.711676 304.665323 
L 214.878419 291.266852 
L 217.045162 295.168701 
L 219.211904 296.926312 
L 221.378647 305.024327 
L 223.54539 305.332795 
L 225.712133 280.947326 
L 227.878876 283.609777 
L 230.045619 294.439156 
L 232.212361 268.212498 
L 234.379104 279.645316 
L 236.545847 280.44993 
L 238.71259 290.117046 
L 240.879333 282.291082 
L 243.046075 270.314474 
L 245.212818 267.089171 
L 247.379561 265.232121 
L 249.546304 278.291542 
L 251.713047 257.539428 
L 253.879789 255.518708 
L 256.046532 258.249123 
L 258.213275 250.685583 
L 260.380018 246.656268 
L 262.546761 234.960252 
L 264.713503 241.499601 
L 266.880246 234.090633 
L 269.046989 245.127184 
L 271.213732 236.895767 
L 273.380475 227.138115 
L 275.547217 229.75045 
L 277.71396 216.927358 
L 279.880703 225.814477 
L 282.047446 212.49234 
L 284.214189 214.059615 
L 286.380931 193.302531 
L 288.547674 204.338135 
L 290.714417 182.10369 
L 292.88116 175.149174 
L 295.047903 187.01249 
L 297.214645 177.808947 
L 299.381388 183.640167 
L 301.548131 198.689097 
L 303.714874 167.04394 
L 305.881617 165.16057 
L 308.048359 168.927388 
L 310.215102 167.812346 
L 312.381845 158.057966 
L 314.548588 154.13088 
L 316.715331 158.733853 
L 318.882074 153.495548 
L 321.048816 135.882927 
L 323.215559 141.031644 
L 325.382302 138.622215 
L 327.549045 125.359484 
L 329.715788 133.926646 
L 331.88253 120.526606 
L 334.049273 133.887423 
L 336.216016 123.682426 
L 338.382759 119.66824 
L 340.549502 110.501838 
L 342.716244 111.851224 
L 344.882987 91.981648 
L 347.04973 97.058518 
L 349.216473 107.906305 
L 351.383216 82.743769 
L 353.549958 107.180113 
L 355.716701 81.281385 
L 357.883444 101.626007 
L 360.050187 84.888597 
L 362.21693 97.473655 
L 364.383672 89.577915 
L 366.550415 72.549537 
L 368.717158 95.962745 
L 370.883901 95.994616 
L 373.050644 80.737754 
L 375.217386 77.359242 
L 377.384129 77.009941 
L 379.550872 68.35674 
L 381.717615 85.982857 
L 383.884358 70.076424 
L 386.0511 73.605998 
L 388.217843 66.07851 
L 390.384586 66.904634 
L 392.551329 60.433125 
L 394.718072 82.93978 
L 396.884814 69.828651 
L 399.051557 79.761748 
L 401.2183 71.044033 
L 403.385043 64.664405 
L 405.551786 68.145174 
L 407.718529 66.300629 
L 409.885271 71.837131 
L 412.052014 68.876419 
L 414.218757 70.187896 
L 416.3855 61.166287 
L 418.552243 67.209434 
L 420.718985 90.479165 
L 422.885728 70.517304 
L 425.052471 68.262277 
L 427.219214 82.189985 
L 429.385957 93.318362 
L 431.552699 68.953181 
L 433.719442 81.891489 
L 435.886185 79.821321 
L 438.052928 71.467982 
L 440.219671 96.048529 
L 442.386413 91.257478 
L 444.553156 94.29405 
L 446.719899 89.108449 
L 448.886642 102.411205 
L 451.053385 95.87152 
L 453.220127 102.015667 
L 455.38687 95.914845 
L 457.553613 97.665786 
L 459.720356 123.585694 
L 461.887099 109.787685 
L 464.053841 119.989442 
L 466.220584 120.083178 
L 468.387327 119.506371 
L 470.55407 122.081702 
L 472.720813 135.633939 
L 474.887555 130.500297 
L 479.221041 140.220519 
L 481.387784 154.14607 
L 483.554527 153.173431 
L 485.721269 154.039339 
L 487.888012 149.075077 
L 490.054755 145.305413 
L 492.221498 170.09734 
L 494.388241 173.956748 
L 496.554984 167.66209 
L 498.721726 177.59941 
L 500.888469 183.543213 
L 503.055212 187.783044 
L 505.221955 192.400674 
L 507.388698 183.737825 
L 509.55544 205.397102 
L 509.55544 205.397102 
" clip-path="url(#pce6119f6b6)" style="fill: none; stroke-dasharray: 7.4,3.2; stroke-dashoffset: 0; stroke: #a0522d; stroke-width: 2"/>
   </g>
   <g id="patch_6">
    <path d="M 56.814531 325.033125 
L 56.814531 47.833125 
" style="fill: none; stroke: #c4b892; stroke-width: 0.8; stroke-linejoin: miter; stroke-linecap: square"/>
   </g>
   <g id="patch_7">
    <path d="M 531.114531 325.033125 
L 531.114531 47.833125 
" style="fill: none; stroke: #c4b892; stroke-width: 0.8; stroke-linejoin: miter; stroke-linecap: square"/>
   </g>
   <g id="patch_8">
    <path d="M 56.814531 325.033125 
L 531.114531 325.033125 
" style="fill: none; stroke: #c4b892; stroke-width: 0.8; stroke-linejoin: miter; stroke-linecap: square"/>
   </g>
  </g>
 </g>
 <defs>
  <clipPath id="pce6119f6b6">
   <rect x="56.814531" y="47.833125" width="474.3" height="277.2"/>
  </clipPath>
 </defs>
</svg>
